# 3ds Max Wavefront OBJ Exporter v0.97b - (c)2007 guruware
# File Created: 05.01.2018 14:59:24

mtllib DuckRWing.mtl

#
# object DuckRWing
#

v  -7.5000 1.0000 3.0000
v  -7.5000 0.0000 -0.0000
v  -7.5000 0.0000 3.0000
v  -7.5000 1.0000 -0.0000
v  -6.5000 0.0000 17.0000
v  -6.5000 -1.0000 3.0000
v  -6.5000 -1.0000 17.0000
v  -6.5000 0.0000 3.0000
v  -6.5000 1.0000 31.0000
v  -6.5000 0.0000 31.0000
v  -6.5000 1.0000 17.0000
v  -6.5000 1.0000 3.0000
v  -5.5000 0.0000 34.0000
v  -5.5000 -1.0000 30.0000
v  -5.5000 -1.0000 34.0000
v  -5.5000 0.0000 31.0000
v  -5.5000 0.0000 30.0000
v  -5.5000 -1.0000 29.0000
v  -5.5000 0.0000 29.0000
v  -5.5000 0.0000 23.0000
v  -5.5000 -1.0000 17.0000
v  -5.5000 -1.0000 23.0000
v  -5.5000 0.0000 17.0000
v  -4.5000 0.0000 36.0000
v  -4.5000 -1.0000 34.0000
v  -4.5000 -1.0000 36.0000
v  -4.5000 0.0000 34.0000
v  -4.5000 0.0000 29.0000
v  -4.5000 -1.0000 27.0000
v  -4.5000 -1.0000 29.0000
v  -4.5000 0.0000 27.0000
v  -4.5000 -1.0000 23.0000
v  -4.5000 0.0000 23.0000
v  -3.5000 0.0000 38.0000
v  -3.5000 -1.0000 36.0000
v  -3.5000 -1.0000 38.0000
v  -3.5000 0.0000 36.0000
v  -3.5000 1.0000 33.0000
v  -3.5000 0.0000 31.0000
v  -3.5000 0.0000 33.0000
v  -3.5000 1.0000 31.0000
v  -2.5000 0.0000 39.0000
v  -2.5000 -1.0000 38.0000
v  -2.5000 -1.0000 39.0000
v  -2.5000 0.0000 38.0000
v  -2.5000 1.0000 34.0000
v  -2.5000 0.0000 33.0000
v  -2.5000 0.0000 34.0000
v  -2.5000 1.0000 33.0000
v  -1.5000 0.0000 40.0000
v  -1.5000 -1.0000 39.0000
v  -1.5000 -1.0000 40.0000
v  -1.5000 0.0000 39.0000
v  -1.5000 0.0000 3.0000
v  -1.5000 -1.0000 2.0000
v  -1.5000 -1.0000 3.0000
v  -1.5000 0.0000 2.0000
v  0.5000 0.0000 2.0000
v  0.5000 -1.0000 -0.0000
v  0.5000 -1.0000 2.0000
v  0.5000 0.0000 -0.0000
v  -0.5000 0.0000 34.0000
v  -0.5000 0.0000 33.0000
v  -0.5000 1.0000 34.0000
v  -0.5000 1.0000 33.0000
v  0.5000 0.0000 33.0000
v  0.5000 0.0000 32.0000
v  0.5000 1.0000 33.0000
v  0.5000 1.0000 32.0000
v  1.5000 -1.0000 40.0000
v  1.5000 -1.0000 39.0000
v  1.5000 0.0000 40.0000
v  1.5000 0.0000 39.0000
v  1.5000 0.0000 32.0000
v  1.5000 0.0000 31.0000
v  1.5000 1.0000 32.0000
v  1.5000 1.0000 31.0000
v  2.5000 -1.0000 39.0000
v  2.5000 -1.0000 37.0000
v  2.5000 0.0000 39.0000
v  2.5000 0.0000 37.0000
v  3.5000 -1.0000 37.0000
v  3.5000 -1.0000 33.0000
v  3.5000 0.0000 37.0000
v  3.5000 0.0000 33.0000
v  3.5000 0.0000 31.0000
v  3.5000 0.0000 30.0000
v  3.5000 1.0000 31.0000
v  3.5000 1.0000 30.0000
v  4.5000 -1.0000 33.0000
v  4.5000 -1.0000 -0.0000
v  4.5000 0.0000 33.0000
v  4.5000 0.0000 30.0000
v  4.5000 0.0000 -0.0000
v  5.5000 0.0000 30.0000
v  5.5000 0.0000 3.0000
v  5.5000 1.0000 30.0000
v  5.5000 1.0000 3.0000
v  6.5000 0.0000 3.0000
v  6.5000 0.0000 1.0000
v  6.5000 1.0000 3.0000
v  6.5000 1.0000 1.0000
v  7.5000 0.0000 1.0000
v  7.5000 0.0000 -0.0000
v  7.5000 1.0000 1.0000
v  7.5000 1.0000 -0.0000
v  -0.5000 -1.0000 40.0000
v  -0.5000 0.0000 40.0000
v  -0.5000 -1.0000 37.0000
v  0.5000 -1.0000 37.0000
v  0.5000 -1.0000 30.0000
v  -2.5000 -1.0000 27.0000
v  -2.5000 -1.0000 26.0000
v  -1.5000 -1.0000 26.0000
v  -0.5000 0.0000 37.0000
v  0.5000 0.0000 37.0000
v  0.5000 1.0000 30.0000
v  1.5000 1.0000 30.0000
v  -5.5000 1.0000 17.0000
v  -0.5000 1.0000 17.0000
v  0.5000 1.0000 17.0000
v  1.5000 1.0000 17.0000
v  -5.5000 1.0000 3.0000
v  -0.5000 1.0000 3.0000
v  0.5000 1.0000 3.0000
# 125 vertices

vn -1.0000 0.0000 -0.0000
vn 1.0000 0.0000 -0.0000
vn 0.0000 0.0000 1.0000
vn 0.0000 0.0000 -1.0000
vn 0.0000 -1.0000 -0.0000
vn 0.0000 1.0000 -0.0000
# 6 vertex normals

vt 0.5371 0.5000 0.0000
vt 0.3965 0.5000 0.0000
vt 0.9629 0.5000 0.0000
vt 0.6895 0.5000 0.0000
# 4 texture coords

g DuckRWing
usemtl palette
s 1
f 1/1/1 2/1/1 3/1/1 
f 4/1/1 2/1/1 1/1/1 
f 5/2/1 6/2/1 7/2/1 
f 8/2/1 6/2/1 5/2/1 
f 9/2/1 5/2/1 10/2/1 
f 11/3/1 8/3/1 5/3/1 
f 11/2/1 5/2/1 9/2/1 
f 12/3/1 8/3/1 11/3/1 
f 13/2/1 14/2/1 15/2/1 
f 16/2/1 14/2/1 13/2/1 
f 17/1/1 18/1/1 14/1/1 
f 17/2/1 14/2/1 16/2/1 
f 19/1/1 18/1/1 17/1/1 
f 20/2/1 21/2/1 22/2/1 
f 23/2/1 21/2/1 20/2/1 
f 24/2/1 25/2/1 26/2/1 
f 27/2/1 25/2/1 24/2/1 
f 28/1/1 29/1/1 30/1/1 
f 31/2/1 32/2/1 29/2/1 
f 31/1/1 29/1/1 28/1/1 
f 33/2/1 32/2/1 31/2/1 
f 34/2/1 35/2/1 36/2/1 
f 37/2/1 35/2/1 34/2/1 
f 38/2/1 39/2/1 40/2/1 
f 41/2/1 39/2/1 38/2/1 
f 42/2/1 43/2/1 44/2/1 
f 45/2/1 43/2/1 42/2/1 
f 46/2/1 47/2/1 48/2/1 
f 49/2/1 47/2/1 46/2/1 
f 50/2/1 51/2/1 52/2/1 
f 53/2/1 51/2/1 50/2/1 
f 54/1/1 55/1/1 56/1/1 
f 57/1/1 55/1/1 54/1/1 
f 58/1/1 59/1/1 60/1/1 
f 61/1/1 59/1/1 58/1/1 
f 62/2/2 63/2/2 64/2/2 
f 64/2/2 63/2/2 65/2/2 
f 66/2/2 67/2/2 68/2/2 
f 68/2/2 67/2/2 69/2/2 
f 70/1/2 71/1/2 72/1/2 
f 72/1/2 71/1/2 73/1/2 
f 74/1/2 75/1/2 76/1/2 
f 76/1/2 75/1/2 77/1/2 
f 78/1/2 79/1/2 80/1/2 
f 80/1/2 79/1/2 81/1/2 
f 82/1/2 83/1/2 84/1/2 
f 84/1/2 83/1/2 85/1/2 
f 86/1/2 87/1/2 88/1/2 
f 88/1/2 87/1/2 89/1/2 
f 90/1/2 91/1/2 92/1/2 
f 92/1/2 91/1/2 93/1/2 
f 93/1/2 91/1/2 94/1/2 
f 95/1/2 96/1/2 97/1/2 
f 97/1/2 96/1/2 98/1/2 
f 99/1/2 100/1/2 101/1/2 
f 101/1/2 100/1/2 102/1/2 
f 103/1/2 104/1/2 105/1/2 
f 105/1/2 104/1/2 106/1/2 
f 107/2/3 50/2/3 52/2/3 
f 108/2/3 50/2/3 107/2/3 
f 70/1/3 108/1/3 107/1/3 
f 72/1/3 108/1/3 70/1/3 
f 51/2/3 42/2/3 44/2/3 
f 53/2/3 42/2/3 51/2/3 
f 78/1/3 73/1/3 71/1/3 
f 80/1/3 73/1/3 78/1/3 
f 43/2/3 34/2/3 36/2/3 
f 45/2/3 34/2/3 43/2/3 
f 82/1/3 81/1/3 79/1/3 
f 84/1/3 81/1/3 82/1/3 
f 35/2/3 24/2/3 26/2/3 
f 37/2/3 24/2/3 35/2/3 
f 25/2/3 13/2/3 15/2/3 
f 27/2/3 13/2/3 25/2/3 
f 62/2/3 46/2/3 48/2/3 
f 64/2/3 46/2/3 62/2/3 
f 47/2/3 38/2/3 40/2/3 
f 49/2/3 38/2/3 47/2/3 
f 66/2/3 65/2/3 63/2/3 
f 68/2/3 65/2/3 66/2/3 
f 90/1/3 85/1/3 83/1/3 
f 92/1/3 85/1/3 90/1/3 
f 74/1/3 69/1/3 67/1/3 
f 76/1/3 69/1/3 74/1/3 
f 16/2/3 9/2/3 10/2/3 
f 39/2/3 9/2/3 16/2/3 
f 41/2/3 9/2/3 39/2/3 
f 86/1/3 77/1/3 75/1/3 
f 88/1/3 77/1/3 86/1/3 
f 93/1/3 89/1/3 87/1/3 
f 95/1/3 89/1/3 93/1/3 
f 97/1/3 89/1/3 95/1/3 
f 32/2/3 20/2/3 22/2/3 
f 33/2/3 20/2/3 32/2/3 
f 21/2/3 5/2/3 7/2/3 
f 23/2/3 5/2/3 21/2/3 
f 8/1/3 1/1/3 3/1/3 
f 12/1/3 1/1/3 8/1/3 
f 99/1/3 98/1/3 96/1/3 
f 101/1/3 98/1/3 99/1/3 
f 103/1/3 102/1/3 100/1/3 
f 105/1/3 102/1/3 103/1/3 
f 18/1/4 19/1/4 30/1/4 
f 30/1/4 19/1/4 28/1/4 
f 6/2/4 8/2/4 56/2/4 
f 56/2/4 8/2/4 54/2/4 
f 55/1/4 57/1/4 60/1/4 
f 60/1/4 57/1/4 58/1/4 
f 2/1/4 4/1/4 61/1/4 
f 59/1/4 61/1/4 91/1/4 
f 61/1/4 4/1/4 94/1/4 
f 91/1/4 61/1/4 94/1/4 
f 94/1/4 4/1/4 104/1/4 
f 104/1/4 4/1/4 106/1/4 
f 51/2/5 107/2/5 52/2/5 
f 71/1/5 70/1/5 107/1/5 
f 43/2/5 51/2/5 44/2/5 
f 109/1/5 78/1/5 71/1/5 
f 109/2/5 43/2/5 36/2/5 
f 109/2/5 51/2/5 43/2/5 
f 109/2/5 107/2/5 51/2/5 
f 109/1/5 71/1/5 107/1/5 
f 110/1/5 78/1/5 109/1/5 
f 79/1/5 78/1/5 110/1/5 
f 35/2/5 109/2/5 36/2/5 
f 35/2/5 110/2/5 109/2/5 
f 25/2/5 35/2/5 26/2/5 
f 83/1/5 82/1/5 79/1/5 
f 83/1/5 79/1/5 110/1/5 
f 14/2/5 25/2/5 15/2/5 
f 111/1/5 90/1/5 83/1/5 
f 111/2/5 25/2/5 14/2/5 
f 111/2/5 35/2/5 25/2/5 
f 111/1/5 83/1/5 110/1/5 
f 111/2/5 110/2/5 35/2/5 
f 18/1/5 111/1/5 14/1/5 
f 30/1/5 111/1/5 18/1/5 
f 29/1/5 111/1/5 30/1/5 
f 112/1/5 111/1/5 29/1/5 
f 113/2/5 112/2/5 29/2/5 
f 113/1/5 111/1/5 112/1/5 
f 114/1/5 111/1/5 113/1/5 
f 32/2/5 113/2/5 29/2/5 
f 32/2/5 114/2/5 113/2/5 
f 21/2/5 32/2/5 22/2/5 
f 6/2/5 21/2/5 7/2/5 
f 56/1/5 111/1/5 114/1/5 
f 56/2/5 21/2/5 6/2/5 
f 56/2/5 114/2/5 32/2/5 
f 56/2/5 32/2/5 21/2/5 
f 55/1/5 111/1/5 56/1/5 
f 60/1/5 90/1/5 111/1/5 
f 60/1/5 111/1/5 55/1/5 
f 59/1/5 90/1/5 60/1/5 
f 91/1/5 90/1/5 59/1/5 
f 17/2/5 16/2/5 10/2/5 
f 19/2/5 17/2/5 10/2/5 
f 31/2/5 28/2/5 19/2/5 
f 20/2/5 19/2/5 10/2/5 
f 20/2/5 31/2/5 19/2/5 
f 33/2/5 31/2/5 20/2/5 
f 5/2/5 20/2/5 10/2/5 
f 23/2/5 20/2/5 5/2/5 
f 96/1/5 95/1/5 93/1/5 
f 57/1/5 54/1/5 8/1/5 
f 57/1/5 8/1/5 3/1/5 
f 100/1/5 99/1/5 96/1/5 
f 2/1/5 58/1/5 57/1/5 
f 2/1/5 57/1/5 3/1/5 
f 61/1/5 58/1/5 2/1/5 
f 94/1/5 103/1/5 100/1/5 
f 94/1/5 96/1/5 93/1/5 
f 94/1/5 100/1/5 96/1/5 
f 104/1/5 103/1/5 94/1/5 
f 50/2/6 108/2/6 53/2/6 
f 108/1/6 72/1/6 73/1/6 
f 42/2/6 53/2/6 45/2/6 
f 73/1/6 80/1/6 115/1/6 
f 34/2/6 45/2/6 115/2/6 
f 45/2/6 53/2/6 115/2/6 
f 53/2/6 108/2/6 115/2/6 
f 108/1/6 73/1/6 115/1/6 
f 115/1/6 80/1/6 116/1/6 
f 116/1/6 80/1/6 81/1/6 
f 34/2/6 115/2/6 37/2/6 
f 115/2/6 116/2/6 37/2/6 
f 24/2/6 37/2/6 27/2/6 
f 37/2/6 116/2/6 48/2/6 
f 27/2/6 37/2/6 48/2/6 
f 48/2/6 116/2/6 62/2/6 
f 13/2/6 27/2/6 40/2/6 
f 27/2/6 48/2/6 40/2/6 
f 40/2/6 48/2/6 47/2/6 
f 62/2/6 116/2/6 63/2/6 
f 81/1/6 84/1/6 66/1/6 
f 63/2/6 116/2/6 66/2/6 
f 116/1/6 81/1/6 66/1/6 
f 66/1/6 84/1/6 85/1/6 
f 85/1/6 92/1/6 67/1/6 
f 66/1/6 85/1/6 67/1/6 
f 67/1/6 92/1/6 74/1/6 
f 13/2/6 40/2/6 16/2/6 
f 16/2/6 40/2/6 39/2/6 
f 74/1/6 92/1/6 75/1/6 
f 75/1/6 92/1/6 86/1/6 
f 86/1/6 92/1/6 87/1/6 
f 87/1/6 92/1/6 93/1/6 
f 46/2/6 64/2/6 49/2/6 
f 49/2/6 64/2/6 65/2/6 
f 38/2/6 49/2/6 69/2/6 
f 65/2/6 68/2/6 69/2/6 
f 49/2/6 65/2/6 69/2/6 
f 38/2/6 69/2/6 41/2/6 
f 69/1/6 76/1/6 77/1/6 
f 9/2/6 41/2/6 117/2/6 
f 77/1/6 88/1/6 117/1/6 
f 69/1/6 77/1/6 117/1/6 
f 41/2/6 69/2/6 117/2/6 
f 117/1/6 88/1/6 118/1/6 
f 118/1/6 88/1/6 89/1/6 
f 9/2/6 117/2/6 11/2/6 
f 117/2/6 118/2/6 11/2/6 
f 11/2/6 118/2/6 119/2/6 
f 119/2/6 118/2/6 120/2/6 
f 120/2/6 118/2/6 121/2/6 
f 89/1/6 97/1/6 122/1/6 
f 121/2/6 118/2/6 122/2/6 
f 118/1/6 89/1/6 122/1/6 
f 11/3/6 119/3/6 12/3/6 
f 119/4/6 120/4/6 123/4/6 
f 12/3/6 119/3/6 123/3/6 
f 120/3/6 121/3/6 124/3/6 
f 123/4/6 120/4/6 124/4/6 
f 121/1/6 122/1/6 125/1/6 
f 124/3/6 121/3/6 125/3/6 
f 122/1/6 97/1/6 98/1/6 
f 125/1/6 122/1/6 98/1/6 
f 12/1/6 123/1/6 102/1/6 
f 98/1/6 101/1/6 102/1/6 
f 125/1/6 98/1/6 102/1/6 
f 1/1/6 12/1/6 102/1/6 
f 123/1/6 124/1/6 102/1/6 
f 124/1/6 125/1/6 102/1/6 
f 1/1/6 102/1/6 4/1/6 
f 102/1/6 105/1/6 4/1/6 
f 4/1/6 105/1/6 106/1/6 
# 0 polygons - 246 triangles

