# 3ds Max Wavefront OBJ Exporter v0.97b - (c)2007 guruware
# File Created: 09.01.2018 14:02:49

mtllib GateFrame.mtl

#
# object Gate_0
#

v  -30.0000 20.0000 1.0000
v  -30.0000 -24.0000 -2.0000
v  -30.0000 -24.0000 1.0000
v  -30.0000 20.0000 -2.0000
v  -30.0000 24.0000 -5.0000
v  -30.0000 -24.0000 -7.0000
v  -30.0000 -24.0000 -5.0000
v  -30.0000 24.0000 -7.0000
v  -28.0000 15.0000 2.0000
v  -28.0000 -24.0000 1.0000
v  -28.0000 -24.0000 2.0000
v  -28.0000 17.0000 4.0000
v  -28.0000 15.0000 4.0000
v  -28.0000 17.0000 1.0000
v  -28.0000 17.0000 -2.0000
v  -28.0000 -24.0000 -5.0000
v  -28.0000 -24.0000 -2.0000
v  -28.0000 17.0000 -5.0000
v  -28.0000 18.0000 4.0000
v  -28.0000 18.0000 1.0000
v  -28.0000 18.0000 -2.0000
v  -28.0000 18.0000 -5.0000
v  -25.0000 17.0000 5.0000
v  -25.0000 15.0000 4.0000
v  -25.0000 15.0000 5.0000
v  -25.0000 17.0000 4.0000
v  -24.0000 15.0000 -2.0000
v  -24.0000 -24.0000 -4.0000
v  -24.0000 -24.0000 -2.0000
v  -24.0000 15.0000 -4.0000
v  -21.0000 11.0000 1.0000
v  -21.0000 -24.0000 -1.0000
v  -21.0000 -24.0000 1.0000
v  -21.0000 11.0000 -1.0000
v  -21.0000 -24.0000 -2.0000
v  -21.0000 11.0000 -2.0000
v  -21.0000 12.0000 -1.0000
v  -21.0000 12.0000 -2.0000
v  -21.0000 17.0000 7.0000
v  -21.0000 15.0000 5.0000
v  -21.0000 15.0000 7.0000
v  -21.0000 17.0000 5.0000
v  -19.0000 24.0000 -5.0000
v  -19.0000 20.0000 -7.0000
v  -19.0000 20.0000 -5.0000
v  -19.0000 24.0000 -7.0000
v  -9.0000 24.0000 -5.0000
v  -9.0000 20.0000 -7.0000
v  -9.0000 20.0000 -5.0000
v  -9.0000 24.0000 -7.0000
v  3.0000 24.0000 -5.0000
v  3.0000 20.0000 -7.0000
v  3.0000 20.0000 -5.0000
v  3.0000 24.0000 -7.0000
v  14.0000 24.0000 -5.0000
v  14.0000 20.0000 -7.0000
v  14.0000 20.0000 -5.0000
v  14.0000 24.0000 -7.0000
v  17.0000 14.0000 -2.0000
v  17.0000 11.0000 -4.0000
v  17.0000 11.0000 -2.0000
v  17.0000 14.0000 -4.0000
v  18.0000 11.0000 1.0000
v  18.0000 -24.0000 -2.0000
v  18.0000 -24.0000 1.0000
v  18.0000 11.0000 -1.0000
v  18.0000 11.0000 -2.0000
v  18.0000 -24.0000 -5.0000
v  18.0000 11.0000 -4.0000
v  18.0000 11.0000 -5.0000
v  18.0000 12.0000 -1.0000
v  18.0000 12.0000 -2.0000
v  20.0000 12.0000 -5.0000
v  20.0000 -24.0000 -7.0000
v  20.0000 -24.0000 -5.0000
v  20.0000 12.0000 -7.0000
v  24.0000 24.0000 -5.0000
v  24.0000 20.0000 -7.0000
v  24.0000 20.0000 -5.0000
v  24.0000 24.0000 -7.0000
v  27.0000 15.0000 2.0000
v  27.0000 -24.0000 -4.0000
v  27.0000 -24.0000 2.0000
v  27.0000 17.0000 2.0000
v  27.0000 17.0000 -4.0000
v  -27.0000 -24.0000 2.0000
v  -27.0000 -24.0000 -4.0000
v  -27.0000 15.0000 2.0000
v  -27.0000 17.0000 2.0000
v  -27.0000 17.0000 -4.0000
v  -24.0000 20.0000 -5.0000
v  -24.0000 20.0000 -7.0000
v  -24.0000 24.0000 -5.0000
v  -24.0000 24.0000 -7.0000
v  -19.0000 -24.0000 -5.0000
v  -19.0000 -24.0000 -7.0000
v  -19.0000 12.0000 -5.0000
v  -19.0000 12.0000 -7.0000
v  -18.0000 -24.0000 1.0000
v  -18.0000 -24.0000 -2.0000
v  -18.0000 11.0000 1.0000
v  -18.0000 11.0000 -1.0000
v  -18.0000 -24.0000 -5.0000
v  -18.0000 11.0000 -2.0000
v  -18.0000 11.0000 -4.0000
v  -18.0000 11.0000 -5.0000
v  -18.0000 12.0000 -1.0000
v  -18.0000 12.0000 -2.0000
v  -16.0000 11.0000 -2.0000
v  -16.0000 11.0000 -4.0000
v  -16.0000 14.0000 -2.0000
v  -16.0000 14.0000 -4.0000
v  -13.0000 20.0000 -5.0000
v  -13.0000 20.0000 -7.0000
v  -13.0000 24.0000 -5.0000
v  -13.0000 24.0000 -7.0000
v  -3.0000 20.0000 -5.0000
v  -3.0000 20.0000 -7.0000
v  -3.0000 24.0000 -5.0000
v  -3.0000 24.0000 -7.0000
v  9.0000 20.0000 -5.0000
v  9.0000 20.0000 -7.0000
v  9.0000 24.0000 -5.0000
v  9.0000 24.0000 -7.0000
v  20.0000 20.0000 -5.0000
v  20.0000 20.0000 -7.0000
v  20.0000 24.0000 -5.0000
v  20.0000 24.0000 -7.0000
v  21.0000 -24.0000 1.0000
v  21.0000 -24.0000 -1.0000
v  21.0000 11.0000 1.0000
v  21.0000 -24.0000 -2.0000
v  21.0000 11.0000 -1.0000
v  21.0000 11.0000 -2.0000
v  21.0000 12.0000 -1.0000
v  21.0000 12.0000 -2.0000
v  21.0000 15.0000 7.0000
v  21.0000 15.0000 5.0000
v  21.0000 17.0000 7.0000
v  21.0000 17.0000 5.0000
v  24.0000 -24.0000 -2.0000
v  24.0000 -24.0000 -4.0000
v  24.0000 15.0000 -2.0000
v  24.0000 15.0000 -4.0000
v  26.0000 15.0000 5.0000
v  26.0000 15.0000 4.0000
v  26.0000 17.0000 5.0000
v  26.0000 17.0000 4.0000
v  29.0000 -24.0000 2.0000
v  29.0000 -24.0000 1.0000
v  29.0000 15.0000 2.0000
v  29.0000 15.0000 4.0000
v  29.0000 17.0000 4.0000
v  29.0000 17.0000 1.0000
v  29.0000 -24.0000 -2.0000
v  29.0000 -24.0000 -5.0000
v  29.0000 17.0000 -2.0000
v  29.0000 17.0000 -5.0000
v  29.0000 18.0000 4.0000
v  29.0000 18.0000 1.0000
v  29.0000 18.0000 -2.0000
v  29.0000 18.0000 -5.0000
v  30.0000 -24.0000 1.0000
v  30.0000 -24.0000 -2.0000
v  30.0000 20.0000 1.0000
v  30.0000 20.0000 -2.0000
v  30.0000 -24.0000 -5.0000
v  30.0000 -24.0000 -7.0000
v  30.0000 24.0000 -5.0000
v  30.0000 24.0000 -7.0000
v  -22.0000 -24.0000 -2.0000
v  -22.0000 12.0000 -2.0000
v  23.0000 -24.0000 -2.0000
v  23.0000 12.0000 -2.0000
v  -19.0000 -24.0000 -1.0000
v  20.0000 -24.0000 -1.0000
v  -19.0000 -24.0000 -2.0000
v  20.0000 -24.0000 -2.0000
v  -22.0000 -24.0000 -4.0000
v  -21.0000 -24.0000 -4.0000
v  21.0000 -24.0000 -4.0000
v  23.0000 -24.0000 -4.0000
v  -27.0000 -24.0000 -5.0000
v  -24.0000 -24.0000 -5.0000
v  -22.0000 -24.0000 -5.0000
v  -21.0000 -24.0000 -5.0000
v  21.0000 -24.0000 -5.0000
v  23.0000 -24.0000 -5.0000
v  24.0000 -24.0000 -5.0000
v  27.0000 -24.0000 -5.0000
# 190 vertices

vn -1.0000 0.0000 -0.0000
vn 1.0000 0.0000 -0.0000
vn 0.0000 0.0000 1.0000
vn 0.0000 0.0000 -1.0000
vn 0.0000 -1.0000 -0.0000
vn 0.0000 1.0000 -0.0000
# 6 vertex normals

vt 0.9863 0.5000 0.0000
vt 0.9668 0.5000 0.0000
vt 0.9785 0.5000 0.0000
vt 0.9746 0.5000 0.0000
vt 0.9824 0.5000 0.0000
vt 0.9590 0.5000 0.0000
vt 0.9902 0.5000 0.0000
# 7 texture coords

g Gate_0
usemtl palette
s 1
f 1/1/1 2/1/1 3/1/1 
f 4/1/1 2/1/1 1/1/1 
f 5/2/1 6/2/1 7/2/1 
f 8/2/1 6/2/1 5/2/1 
f 9/3/1 10/3/1 11/3/1 
f 12/3/1 9/3/1 13/3/1 
f 14/3/1 10/3/1 9/3/1 
f 14/3/1 9/3/1 12/3/1 
f 15/3/1 16/3/1 17/3/1 
f 18/3/1 16/3/1 15/3/1 
f 19/4/1 14/4/1 12/4/1 
f 20/4/1 14/4/1 19/4/1 
f 21/4/1 18/4/1 15/4/1 
f 22/4/1 18/4/1 21/4/1 
f 23/3/1 24/3/1 25/3/1 
f 26/3/1 24/3/1 23/3/1 
f 27/1/1 28/1/1 29/1/1 
f 30/1/1 28/1/1 27/1/1 
f 31/5/1 32/5/1 33/5/1 
f 34/6/1 35/6/1 32/6/1 
f 34/5/1 32/5/1 31/5/1 
f 36/6/1 35/6/1 34/6/1 
f 37/5/1 36/5/1 34/5/1 
f 38/5/1 36/5/1 37/5/1 
f 39/3/1 40/3/1 41/3/1 
f 42/3/1 40/3/1 39/3/1 
f 43/2/1 44/2/1 45/2/1 
f 46/2/1 44/2/1 43/2/1 
f 47/2/1 48/2/1 49/2/1 
f 50/2/1 48/2/1 47/2/1 
f 51/2/1 52/2/1 53/2/1 
f 54/2/1 52/2/1 51/2/1 
f 55/2/1 56/2/1 57/2/1 
f 58/2/1 56/2/1 55/2/1 
f 59/1/1 60/1/1 61/1/1 
f 62/1/1 60/1/1 59/1/1 
f 63/5/1 64/5/1 65/5/1 
f 66/5/1 64/5/1 63/5/1 
f 67/7/1 68/7/1 64/7/1 
f 67/5/1 64/5/1 66/5/1 
f 69/7/1 68/7/1 67/7/1 
f 70/7/1 68/7/1 69/7/1 
f 71/5/1 67/5/1 66/5/1 
f 72/5/1 67/5/1 71/5/1 
f 73/2/1 74/2/1 75/2/1 
f 76/2/1 74/2/1 73/2/1 
f 77/2/1 78/2/1 79/2/1 
f 80/2/1 78/2/1 77/2/1 
f 81/3/1 82/3/1 83/3/1 
f 84/3/1 82/3/1 81/3/1 
f 85/3/1 82/3/1 84/3/1 
f 86/3/2 87/3/2 88/3/2 
f 88/3/2 87/3/2 89/3/2 
f 89/3/2 87/3/2 90/3/2 
f 91/2/2 92/2/2 93/2/2 
f 93/2/2 92/2/2 94/2/2 
f 95/2/2 96/2/2 97/2/2 
f 97/2/2 96/2/2 98/2/2 
f 99/5/2 100/5/2 101/5/2 
f 101/5/2 100/5/2 102/5/2 
f 100/7/2 103/7/2 104/7/2 
f 102/5/2 100/5/2 104/5/2 
f 104/7/2 103/7/2 105/7/2 
f 105/7/2 103/7/2 106/7/2 
f 102/5/2 104/5/2 107/5/2 
f 107/5/2 104/5/2 108/5/2 
f 109/1/2 110/1/2 111/1/2 
f 111/1/2 110/1/2 112/1/2 
f 113/2/2 114/2/2 115/2/2 
f 115/2/2 114/2/2 116/2/2 
f 117/2/2 118/2/2 119/2/2 
f 119/2/2 118/2/2 120/2/2 
f 121/2/2 122/2/2 123/2/2 
f 123/2/2 122/2/2 124/2/2 
f 125/2/2 126/2/2 127/2/2 
f 127/2/2 126/2/2 128/2/2 
f 129/5/2 130/5/2 131/5/2 
f 130/6/2 132/6/2 133/6/2 
f 131/5/2 130/5/2 133/5/2 
f 133/6/2 132/6/2 134/6/2 
f 133/5/2 134/5/2 135/5/2 
f 135/5/2 134/5/2 136/5/2 
f 137/3/2 138/3/2 139/3/2 
f 139/3/2 138/3/2 140/3/2 
f 141/1/2 142/1/2 143/1/2 
f 143/1/2 142/1/2 144/1/2 
f 145/3/2 146/3/2 147/3/2 
f 147/3/2 146/3/2 148/3/2 
f 149/3/2 150/3/2 151/3/2 
f 152/3/2 151/3/2 153/3/2 
f 151/3/2 150/3/2 154/3/2 
f 153/3/2 151/3/2 154/3/2 
f 155/3/2 156/3/2 157/3/2 
f 157/3/2 156/3/2 158/3/2 
f 153/4/2 154/4/2 159/4/2 
f 159/4/2 154/4/2 160/4/2 
f 157/4/2 158/4/2 161/4/2 
f 161/4/2 158/4/2 162/4/2 
f 163/1/2 164/1/2 165/1/2 
f 165/1/2 164/1/2 166/1/2 
f 167/2/2 168/2/2 169/2/2 
f 169/2/2 168/2/2 170/2/2 
f 137/3/3 39/3/3 41/3/3 
f 139/3/3 39/3/3 137/3/3 
f 40/3/3 23/3/3 25/3/3 
f 42/3/3 23/3/3 40/3/3 
f 145/3/3 140/3/3 138/3/3 
f 147/3/3 140/3/3 145/3/3 
f 24/3/3 12/3/3 13/3/3 
f 26/4/3 19/4/3 12/4/3 
f 26/3/3 12/3/3 24/3/3 
f 148/4/3 19/4/3 26/4/3 
f 152/3/3 148/3/3 146/3/3 
f 153/4/3 19/4/3 148/4/3 
f 153/3/3 148/3/3 152/3/3 
f 159/4/3 19/4/3 153/4/3 
f 86/3/3 9/3/3 11/3/3 
f 88/3/3 9/3/3 86/3/3 
f 149/3/3 81/3/3 83/3/3 
f 151/3/3 81/3/3 149/3/3 
f 10/1/3 1/1/3 3/1/3 
f 14/1/3 1/1/3 10/1/3 
f 20/1/3 1/1/3 14/1/3 
f 99/5/3 31/5/3 33/5/3 
f 101/5/3 31/5/3 99/5/3 
f 129/5/3 63/5/3 65/5/3 
f 131/5/3 63/5/3 129/5/3 
f 160/1/3 1/1/3 20/1/3 
f 163/1/3 154/1/3 150/1/3 
f 163/1/3 160/1/3 154/1/3 
f 165/1/3 1/1/3 160/1/3 
f 165/1/3 160/1/3 163/1/3 
f 102/5/3 37/5/3 34/5/3 
f 107/5/3 37/5/3 102/5/3 
f 133/5/3 71/5/3 66/5/3 
f 135/5/3 71/5/3 133/5/3 
f 171/1/3 27/1/3 29/1/3 
f 172/1/3 27/1/3 171/1/3 
f 35/5/3 172/5/3 171/5/3 
f 36/5/3 172/5/3 35/5/3 
f 38/1/3 27/1/3 172/1/3 
f 38/5/3 172/5/3 36/5/3 
f 108/1/3 27/1/3 38/1/3 
f 109/1/3 108/1/3 104/1/3 
f 111/1/3 27/1/3 108/1/3 
f 111/1/3 108/1/3 109/1/3 
f 59/1/3 27/1/3 111/1/3 
f 67/1/3 59/1/3 61/1/3 
f 72/1/3 59/1/3 67/1/3 
f 136/1/3 59/1/3 72/1/3 
f 173/5/3 134/5/3 132/5/3 
f 173/5/3 136/5/3 134/5/3 
f 174/1/3 59/1/3 136/1/3 
f 174/5/3 136/5/3 173/5/3 
f 141/1/3 174/1/3 173/1/3 
f 143/1/3 27/1/3 59/1/3 
f 143/1/3 174/1/3 141/1/3 
f 143/1/3 59/1/3 174/1/3 
f 28/5/3 90/5/3 87/5/3 
f 30/5/3 90/5/3 28/5/3 
f 60/7/3 112/7/3 110/7/3 
f 62/7/3 112/7/3 60/7/3 
f 144/5/3 90/5/3 30/5/3 
f 82/5/3 144/5/3 142/5/3 
f 85/5/3 90/5/3 144/5/3 
f 85/5/3 144/5/3 82/5/3 
f 16/2/3 5/2/3 7/2/3 
f 18/2/3 5/2/3 16/2/3 
f 22/2/3 5/2/3 18/2/3 
f 91/2/3 5/2/3 22/2/3 
f 93/2/3 5/2/3 91/2/3 
f 45/2/3 91/2/3 22/2/3 
f 113/2/3 45/2/3 22/2/3 
f 113/2/3 43/2/3 45/2/3 
f 115/2/3 43/2/3 113/2/3 
f 49/2/3 113/2/3 22/2/3 
f 117/2/3 49/2/3 22/2/3 
f 117/2/3 47/2/3 49/2/3 
f 119/2/3 47/2/3 117/2/3 
f 53/2/3 117/2/3 22/2/3 
f 121/2/3 53/2/3 22/2/3 
f 121/2/3 51/2/3 53/2/3 
f 123/2/3 51/2/3 121/2/3 
f 57/2/3 121/2/3 22/2/3 
f 125/2/3 57/2/3 22/2/3 
f 125/2/3 55/2/3 57/2/3 
f 127/2/3 55/2/3 125/2/3 
f 79/2/3 125/2/3 22/2/3 
f 162/2/3 79/2/3 22/2/3 
f 162/2/3 77/2/3 79/2/3 
f 167/2/3 158/2/3 156/2/3 
f 167/2/3 162/2/3 158/2/3 
f 169/2/3 77/2/3 162/2/3 
f 169/2/3 162/2/3 167/2/3 
f 88/3/4 89/3/4 81/3/4 
f 81/3/4 89/3/4 84/3/4 
f 2/1/4 4/1/4 17/1/4 
f 17/1/4 4/1/4 15/1/4 
f 15/1/4 4/1/4 21/1/4 
f 21/1/4 4/1/4 161/1/4 
f 155/1/4 157/1/4 164/1/4 
f 157/1/4 161/1/4 164/1/4 
f 161/1/4 4/1/4 166/1/4 
f 164/1/4 161/1/4 166/1/4 
f 95/7/4 97/7/4 103/7/4 
f 103/7/4 97/7/4 106/7/4 
f 106/7/4 97/7/4 70/7/4 
f 68/7/4 70/7/4 75/7/4 
f 70/7/4 97/7/4 73/7/4 
f 75/7/4 70/7/4 73/7/4 
f 6/2/4 8/2/4 92/2/4 
f 92/2/4 8/2/4 94/2/4 
f 6/2/4 92/2/4 96/2/4 
f 96/2/4 92/2/4 98/2/4 
f 98/2/4 92/2/4 44/2/4 
f 44/2/4 46/2/4 114/2/4 
f 98/2/4 44/2/4 114/2/4 
f 114/2/4 46/2/4 116/2/4 
f 98/2/4 114/2/4 48/2/4 
f 98/2/4 48/2/4 118/2/4 
f 48/2/4 50/2/4 118/2/4 
f 118/2/4 50/2/4 120/2/4 
f 98/2/4 118/2/4 52/2/4 
f 98/2/4 52/2/4 122/2/4 
f 52/2/4 54/2/4 122/2/4 
f 122/2/4 54/2/4 124/2/4 
f 98/2/4 122/2/4 56/2/4 
f 98/2/4 56/2/4 76/2/4 
f 56/2/4 58/2/4 76/2/4 
f 76/2/4 58/2/4 126/2/4 
f 126/2/4 58/2/4 128/2/4 
f 74/2/4 76/2/4 78/2/4 
f 76/2/4 126/2/4 78/2/4 
f 74/2/4 78/2/4 168/2/4 
f 78/2/4 80/2/4 168/2/4 
f 168/2/4 80/2/4 170/2/4 
f 10/3/5 86/3/5 11/3/5 
f 150/3/5 149/3/5 83/3/5 
f 32/5/5 99/5/5 33/5/5 
f 175/5/5 99/5/5 32/5/5 
f 176/5/5 129/5/5 65/5/5 
f 130/5/5 129/5/5 176/5/5 
f 2/1/5 10/1/5 3/1/5 
f 17/3/5 86/3/5 10/3/5 
f 17/1/5 10/1/5 2/1/5 
f 35/6/5 175/6/5 32/6/5 
f 177/5/5 99/5/5 175/5/5 
f 177/6/5 175/6/5 35/6/5 
f 100/5/5 99/5/5 177/5/5 
f 64/5/5 176/5/5 65/5/5 
f 178/6/5 130/6/5 176/6/5 
f 178/5/5 176/5/5 64/5/5 
f 132/6/5 130/6/5 178/6/5 
f 155/1/5 163/1/5 150/1/5 
f 155/3/5 150/3/5 83/3/5 
f 164/1/5 163/1/5 155/1/5 
f 87/3/5 86/3/5 17/3/5 
f 28/1/5 171/1/5 29/1/5 
f 179/5/5 35/5/5 171/5/5 
f 179/1/5 171/1/5 28/1/5 
f 180/6/5 177/6/5 35/6/5 
f 180/5/5 35/5/5 179/5/5 
f 181/6/5 132/6/5 178/6/5 
f 181/5/5 173/5/5 132/5/5 
f 182/1/5 141/1/5 173/1/5 
f 182/5/5 173/5/5 181/5/5 
f 142/1/5 141/1/5 182/1/5 
f 82/3/5 155/3/5 83/3/5 
f 16/3/5 87/3/5 17/3/5 
f 183/5/5 28/5/5 87/5/5 
f 183/3/5 87/3/5 16/3/5 
f 184/1/5 179/1/5 28/1/5 
f 184/5/5 28/5/5 183/5/5 
f 185/7/5 180/7/5 179/7/5 
f 185/1/5 179/1/5 184/1/5 
f 186/6/5 177/6/5 180/6/5 
f 186/7/5 180/7/5 185/7/5 
f 95/7/5 100/7/5 177/7/5 
f 95/6/5 177/6/5 186/6/5 
f 103/7/5 100/7/5 95/7/5 
f 68/7/5 178/7/5 64/7/5 
f 75/6/5 181/6/5 178/6/5 
f 75/7/5 178/7/5 68/7/5 
f 187/7/5 182/7/5 181/7/5 
f 187/6/5 181/6/5 75/6/5 
f 188/1/5 142/1/5 182/1/5 
f 188/7/5 182/7/5 187/7/5 
f 189/5/5 82/5/5 142/5/5 
f 189/1/5 142/1/5 188/1/5 
f 190/3/5 155/3/5 82/3/5 
f 190/5/5 82/5/5 189/5/5 
f 156/3/5 155/3/5 190/3/5 
f 6/2/5 16/2/5 7/2/5 
f 6/2/5 185/2/5 184/2/5 
f 6/2/5 184/2/5 183/2/5 
f 6/2/5 186/2/5 185/2/5 
f 6/2/5 95/2/5 186/2/5 
f 6/2/5 183/2/5 16/2/5 
f 96/2/5 95/2/5 6/2/5 
f 74/2/5 167/2/5 156/2/5 
f 74/2/5 156/2/5 190/2/5 
f 74/2/5 190/2/5 189/2/5 
f 74/2/5 188/2/5 187/2/5 
f 74/2/5 187/2/5 75/2/5 
f 74/2/5 189/2/5 188/2/5 
f 168/2/5 167/2/5 74/2/5 
f 105/1/5 109/1/5 104/1/5 
f 110/1/5 109/1/5 105/1/5 
f 60/1/5 67/1/5 61/1/5 
f 69/1/5 67/1/5 60/1/5 
f 106/7/5 110/7/5 105/7/5 
f 106/7/5 60/7/5 110/7/5 
f 106/7/5 69/7/5 60/7/5 
f 70/7/5 69/7/5 106/7/5 
f 98/2/5 73/2/5 97/2/5 
f 76/2/5 73/2/5 98/2/5 
f 112/1/5 59/1/5 111/1/5 
f 62/1/5 59/1/5 112/1/5 
f 40/3/5 137/3/5 41/3/5 
f 138/3/5 137/3/5 40/3/5 
f 24/3/5 40/3/5 25/3/5 
f 24/3/5 145/3/5 138/3/5 
f 24/3/5 138/3/5 40/3/5 
f 146/3/5 145/3/5 24/3/5 
f 9/3/5 24/3/5 13/3/5 
f 9/3/5 152/3/5 146/3/5 
f 9/3/5 146/3/5 24/3/5 
f 88/3/5 152/3/5 9/3/5 
f 81/3/5 152/3/5 88/3/5 
f 151/3/5 152/3/5 81/3/5 
f 90/4/5 84/4/5 89/4/5 
f 85/4/5 84/4/5 90/4/5 
f 31/5/6 101/5/6 34/5/6 
f 34/5/6 101/5/6 102/5/6 
f 63/5/6 131/5/6 66/5/6 
f 66/5/6 131/5/6 133/5/6 
f 37/5/6 107/5/6 38/5/6 
f 38/5/6 107/5/6 108/5/6 
f 71/5/6 135/5/6 72/5/6 
f 72/5/6 135/5/6 136/5/6 
f 27/1/6 143/1/6 30/1/6 
f 30/1/6 143/1/6 144/1/6 
f 39/3/6 139/3/6 42/3/6 
f 42/3/6 139/3/6 140/3/6 
f 23/3/6 42/3/6 26/3/6 
f 140/3/6 147/3/6 26/3/6 
f 42/3/6 140/3/6 26/3/6 
f 26/3/6 147/3/6 148/3/6 
f 19/4/6 159/4/6 20/4/6 
f 20/4/6 159/4/6 160/4/6 
f 21/4/6 161/4/6 22/4/6 
f 22/4/6 161/4/6 162/4/6 
f 1/1/6 165/1/6 4/1/6 
f 4/1/6 165/1/6 166/1/6 
f 91/2/6 45/2/6 92/2/6 
f 92/2/6 45/2/6 44/2/6 
f 113/2/6 49/2/6 114/2/6 
f 114/2/6 49/2/6 48/2/6 
f 117/2/6 53/2/6 118/2/6 
f 118/2/6 53/2/6 52/2/6 
f 121/2/6 57/2/6 122/2/6 
f 122/2/6 57/2/6 56/2/6 
f 125/2/6 79/2/6 126/2/6 
f 126/2/6 79/2/6 78/2/6 
f 5/2/6 93/2/6 8/2/6 
f 8/2/6 93/2/6 94/2/6 
f 43/2/6 115/2/6 46/2/6 
f 46/2/6 115/2/6 116/2/6 
f 47/2/6 119/2/6 50/2/6 
f 50/2/6 119/2/6 120/2/6 
f 51/2/6 123/2/6 54/2/6 
f 54/2/6 123/2/6 124/2/6 
f 55/2/6 127/2/6 58/2/6 
f 58/2/6 127/2/6 128/2/6 
f 77/2/6 169/2/6 80/2/6 
f 80/2/6 169/2/6 170/2/6 
# 0 polygons - 376 triangles

