# 3ds Max Wavefront OBJ Exporter v0.97b - (c)2007 guruware
# File Created: 09.01.2018 14:03:47

mtllib GateDoor.mtl

#
# object Gate_1
#

v  0.0000 -15.5000 1.0000
v  0.0000 -17.5000 1.0000
v  0.0000 -17.5000 3.0000
v  0.0000 -17.5000 -2.0000
v  0.0000 -15.5000 -2.0000
v  0.0000 -17.5000 -3.0000
v  0.0000 -14.5000 -0.0000
v  0.0000 -14.5000 -2.0000
v  0.0000 -12.5000 -0.0000
v  0.0000 -12.5000 -2.0000
v  0.0000 -11.5000 1.0000
v  0.0000 -11.5000 -2.0000
v  0.0000 -8.5000 -0.0000
v  0.0000 -8.5000 -2.0000
v  0.0000 -6.5000 -0.0000
v  0.0000 -6.5000 -2.0000
v  0.0000 -2.5000 1.0000
v  0.0000 -2.5000 -2.0000
v  0.0000 -0.5000 -0.0000
v  0.0000 -0.5000 -2.0000
v  0.0000 0.5000 -0.0000
v  0.0000 0.5000 -2.0000
v  0.0000 2.5000 1.0000
v  0.0000 2.5000 -2.0000
v  0.0000 6.5000 -0.0000
v  0.0000 6.5000 -2.0000
v  0.0000 8.5000 -0.0000
v  0.0000 8.5000 -2.0000
v  0.0000 11.5000 1.0000
v  0.0000 11.5000 -2.0000
v  0.0000 12.5000 -0.0000
v  0.0000 12.5000 -2.0000
v  0.0000 14.5000 -0.0000
v  0.0000 14.5000 -2.0000
v  0.0000 15.5000 1.0000
v  0.0000 15.5000 -2.0000
v  0.0000 17.5000 3.0000
v  0.0000 17.5000 1.0000
v  0.0000 17.5000 -2.0000
v  0.0000 17.5000 -3.0000
v  3.0000 -0.5000 -0.0000
v  3.0000 -3.5000 -2.0000
v  3.0000 -3.5000 -0.0000
v  3.0000 -0.5000 -2.0000
v  3.0000 3.5000 -0.0000
v  3.0000 0.5000 -2.0000
v  3.0000 0.5000 -0.0000
v  3.0000 3.5000 -2.0000
v  5.0000 -14.5000 -0.0000
v  5.0000 -17.5000 -2.0000
v  5.0000 -17.5000 -0.0000
v  5.0000 -14.5000 -2.0000
v  5.0000 -12.5000 1.0000
v  5.0000 -14.5000 3.0000
v  5.0000 -12.5000 -0.0000
v  5.0000 -8.5000 -0.0000
v  5.0000 -12.5000 -2.0000
v  5.0000 -8.5000 -2.0000
v  5.0000 -3.5000 -0.0000
v  5.0000 -6.5000 -2.0000
v  5.0000 -6.5000 -0.0000
v  5.0000 -3.5000 -2.0000
v  5.0000 -0.5000 1.0000
v  5.0000 0.5000 1.0000
v  5.0000 -0.5000 -0.0000
v  5.0000 0.5000 -0.0000
v  5.0000 6.5000 -0.0000
v  5.0000 3.5000 -2.0000
v  5.0000 3.5000 -0.0000
v  5.0000 6.5000 -2.0000
v  5.0000 12.5000 1.0000
v  5.0000 12.5000 -0.0000
v  5.0000 8.5000 -2.0000
v  5.0000 8.5000 -0.0000
v  5.0000 12.5000 -2.0000
v  5.0000 14.5000 3.0000
v  5.0000 14.5000 -0.0000
v  5.0000 17.5000 -0.0000
v  5.0000 14.5000 -2.0000
v  5.0000 17.5000 -2.0000
v  6.0000 -6.5000 1.0000
v  6.0000 -8.5000 -0.0000
v  6.0000 -8.5000 1.0000
v  6.0000 -6.5000 -0.0000
v  6.0000 8.5000 1.0000
v  6.0000 6.5000 -0.0000
v  6.0000 6.5000 1.0000
v  6.0000 8.5000 -0.0000
v  12.0000 -14.5000 -0.0000
v  12.0000 -17.5000 -2.0000
v  12.0000 -17.5000 -0.0000
v  12.0000 -14.5000 -2.0000
v  12.0000 -8.5000 1.0000
v  12.0000 -12.5000 1.0000
v  12.0000 -12.5000 3.0000
v  12.0000 -8.5000 -0.0000
v  12.0000 -12.5000 -2.0000
v  12.0000 -12.5000 -0.0000
v  12.0000 -8.5000 -2.0000
v  12.0000 -6.5000 1.0000
v  12.0000 -0.5000 3.0000
v  12.0000 -0.5000 1.0000
v  12.0000 -0.5000 -0.0000
v  12.0000 -6.5000 -2.0000
v  12.0000 -6.5000 -0.0000
v  12.0000 -0.5000 -2.0000
v  12.0000 6.5000 1.0000
v  12.0000 0.5000 1.0000
v  12.0000 0.5000 3.0000
v  12.0000 6.5000 -0.0000
v  12.0000 0.5000 -2.0000
v  12.0000 0.5000 -0.0000
v  12.0000 6.5000 -2.0000
v  12.0000 8.5000 1.0000
v  12.0000 12.5000 3.0000
v  12.0000 12.5000 1.0000
v  12.0000 12.5000 -0.0000
v  12.0000 8.5000 -2.0000
v  12.0000 8.5000 -0.0000
v  12.0000 12.5000 -2.0000
v  12.0000 17.5000 -0.0000
v  12.0000 14.5000 -2.0000
v  12.0000 14.5000 -0.0000
v  12.0000 17.5000 -2.0000
v  14.0000 -0.5000 1.0000
v  14.0000 -2.5000 -0.0000
v  14.0000 -2.5000 1.0000
v  14.0000 -0.5000 -0.0000
v  14.0000 2.5000 1.0000
v  14.0000 0.5000 -0.0000
v  14.0000 0.5000 1.0000
v  14.0000 2.5000 -0.0000
v  2.0000 -17.5000 -0.0000
v  2.0000 -17.5000 -2.0000
v  2.0000 -15.5000 -0.0000
v  2.0000 -15.5000 -2.0000
v  2.0000 -14.5000 -0.0000
v  2.0000 -14.5000 -2.0000
v  2.0000 -12.5000 -0.0000
v  2.0000 -12.5000 -2.0000
v  2.0000 -11.5000 -0.0000
v  2.0000 -11.5000 -2.0000
v  2.0000 -8.5000 -0.0000
v  2.0000 -8.5000 -2.0000
v  2.0000 -6.5000 -0.0000
v  2.0000 -6.5000 -2.0000
v  2.0000 -2.5000 -0.0000
v  2.0000 -2.5000 -2.0000
v  2.0000 -0.5000 -0.0000
v  2.0000 -0.5000 -2.0000
v  2.0000 0.5000 -0.0000
v  2.0000 0.5000 -2.0000
v  2.0000 2.5000 -0.0000
v  2.0000 2.5000 -2.0000
v  2.0000 6.5000 -0.0000
v  2.0000 6.5000 -2.0000
v  2.0000 8.5000 -0.0000
v  2.0000 8.5000 -2.0000
v  2.0000 11.5000 -0.0000
v  2.0000 11.5000 -2.0000
v  2.0000 12.5000 -0.0000
v  2.0000 12.5000 -2.0000
v  2.0000 14.5000 -0.0000
v  2.0000 14.5000 -2.0000
v  2.0000 15.5000 -0.0000
v  2.0000 15.5000 -2.0000
v  2.0000 -17.5000 3.0000
v  2.0000 -17.5000 1.0000
v  2.0000 17.5000 3.0000
v  2.0000 17.5000 1.0000
v  2.0000 17.5000 -0.0000
v  2.0000 17.5000 -2.0000
v  3.0000 -17.5000 1.0000
v  3.0000 -17.5000 -0.0000
v  3.0000 -14.5000 -0.0000
v  3.0000 -12.5000 -0.0000
v  3.0000 -8.5000 -0.0000
v  3.0000 -6.5000 -0.0000
v  3.0000 6.5000 -0.0000
v  3.0000 8.5000 -0.0000
v  3.0000 12.5000 -0.0000
v  3.0000 14.5000 -0.0000
v  3.0000 17.5000 1.0000
v  3.0000 17.5000 -0.0000
v  6.0000 -17.5000 -0.0000
v  6.0000 -17.5000 -2.0000
v  6.0000 -14.5000 -0.0000
v  6.0000 -14.5000 -2.0000
v  6.0000 -12.5000 3.0000
v  6.0000 -12.5000 1.0000
v  6.0000 -12.5000 -0.0000
v  6.0000 -12.5000 -2.0000
v  6.0000 -8.5000 -2.0000
v  6.0000 -0.5000 3.0000
v  6.0000 -0.5000 1.0000
v  6.0000 -6.5000 -2.0000
v  6.0000 -0.5000 -0.0000
v  6.0000 -0.5000 -2.0000
v  6.0000 0.5000 3.0000
v  6.0000 0.5000 1.0000
v  6.0000 0.5000 -0.0000
v  6.0000 0.5000 -2.0000
v  6.0000 6.5000 -2.0000
v  6.0000 12.5000 3.0000
v  6.0000 12.5000 1.0000
v  6.0000 8.5000 -2.0000
v  6.0000 12.5000 -0.0000
v  6.0000 12.5000 -2.0000
v  6.0000 14.5000 -0.0000
v  6.0000 14.5000 -2.0000
v  6.0000 17.5000 -0.0000
v  6.0000 17.5000 -2.0000
v  14.0000 -17.5000 -0.0000
v  14.0000 -17.5000 -2.0000
v  14.0000 -14.5000 -0.0000
v  14.0000 -14.5000 -2.0000
v  14.0000 -14.5000 3.0000
v  14.0000 -12.5000 1.0000
v  14.0000 -12.5000 -0.0000
v  14.0000 -12.5000 -2.0000
v  14.0000 -8.5000 -0.0000
v  14.0000 -8.5000 -2.0000
v  14.0000 -6.5000 -0.0000
v  14.0000 -6.5000 -2.0000
v  14.0000 -3.5000 -0.0000
v  14.0000 -3.5000 -2.0000
v  14.0000 3.5000 -0.0000
v  14.0000 3.5000 -2.0000
v  14.0000 6.5000 -0.0000
v  14.0000 6.5000 -2.0000
v  14.0000 12.5000 1.0000
v  14.0000 8.5000 -0.0000
v  14.0000 8.5000 -2.0000
v  14.0000 12.5000 -0.0000
v  14.0000 12.5000 -2.0000
v  14.0000 14.5000 3.0000
v  14.0000 14.5000 -0.0000
v  14.0000 14.5000 -2.0000
v  14.0000 17.5000 -0.0000
v  14.0000 17.5000 -2.0000
v  17.0000 -3.5000 -0.0000
v  17.0000 -3.5000 -2.0000
v  17.0000 -2.5000 -0.0000
v  17.0000 -0.5000 -0.0000
v  17.0000 -2.5000 1.0000
v  17.0000 -0.5000 -2.0000
v  17.0000 0.5000 -0.0000
v  17.0000 2.5000 1.0000
v  17.0000 0.5000 -2.0000
v  17.0000 2.5000 -0.0000
v  17.0000 3.5000 -0.0000
v  17.0000 3.5000 -2.0000
v  18.0000 -17.5000 -2.0000
v  18.0000 -17.5000 -3.0000
v  18.0000 -14.5000 -2.0000
v  18.0000 -14.5000 -0.0000
v  18.0000 -12.5000 -0.0000
v  18.0000 -12.5000 -2.0000
v  18.0000 -8.5000 -2.0000
v  18.0000 -8.5000 -0.0000
v  18.0000 -6.5000 -0.0000
v  18.0000 -6.5000 -2.0000
v  18.0000 -0.5000 -2.0000
v  18.0000 -0.5000 -0.0000
v  18.0000 0.5000 -0.0000
v  18.0000 0.5000 -2.0000
v  18.0000 6.5000 -2.0000
v  18.0000 6.5000 -0.0000
v  18.0000 8.5000 -0.0000
v  18.0000 8.5000 -2.0000
v  18.0000 12.5000 -2.0000
v  18.0000 12.5000 -0.0000
v  18.0000 14.5000 -0.0000
v  18.0000 14.5000 -2.0000
v  18.0000 17.5000 -2.0000
v  18.0000 17.5000 -3.0000
v  6.0000 -14.5000 3.0000
v  6.0000 14.5000 3.0000
v  12.0000 -14.5000 3.0000
v  12.0000 14.5000 3.0000
v  6.0000 -14.5000 1.0000
v  12.0000 -14.5000 1.0000
v  6.0000 14.5000 1.0000
v  12.0000 14.5000 1.0000
# 284 vertices

vn -1.0000 0.0000 -0.0000
vn 1.0000 0.0000 -0.0000
vn 0.0000 0.0000 1.0000
vn 0.0000 0.0000 -1.0000
vn 0.0000 -1.0000 -0.0000
vn 0.0000 1.0000 -0.0000
# 6 vertex normals

vt 0.6699 0.5000 0.0000
vt 0.9902 0.5000 0.0000
vt 0.9629 0.5000 0.0000
vt 0.1660 0.5000 0.0000
vt 0.9863 0.5000 0.0000
vt 0.9941 0.5000 0.0000
vt 0.8105 0.5000 0.0000
vt 0.9824 0.5000 0.0000
# 8 texture coords

g Gate_1
usemtl palette
s 1
f 1/1/1 2/1/1 3/1/1 
f 1/2/1 4/2/1 2/2/1 
f 5/3/1 6/3/1 4/3/1 
f 5/2/1 4/2/1 1/2/1 
f 7/4/1 5/4/1 1/4/1 
f 8/3/1 6/3/1 5/3/1 
f 8/4/1 5/4/1 7/4/1 
f 9/4/1 7/4/1 1/4/1 
f 9/5/1 8/5/1 7/5/1 
f 10/3/1 6/3/1 8/3/1 
f 10/5/1 8/5/1 9/5/1 
f 11/1/1 1/1/1 3/1/1 
f 11/4/1 9/4/1 1/4/1 
f 11/4/1 10/4/1 9/4/1 
f 12/3/1 6/3/1 10/3/1 
f 12/4/1 10/4/1 11/4/1 
f 13/2/1 12/2/1 11/2/1 
f 14/3/1 6/3/1 12/3/1 
f 14/2/1 12/2/1 13/2/1 
f 15/2/1 13/2/1 11/2/1 
f 15/5/1 14/5/1 13/5/1 
f 16/3/1 6/3/1 14/3/1 
f 16/5/1 14/5/1 15/5/1 
f 17/1/1 11/1/1 3/1/1 
f 17/2/1 15/2/1 11/2/1 
f 17/2/1 16/2/1 15/2/1 
f 18/3/1 6/3/1 16/3/1 
f 18/2/1 16/2/1 17/2/1 
f 19/4/1 18/4/1 17/4/1 
f 20/3/1 6/3/1 18/3/1 
f 20/4/1 18/4/1 19/4/1 
f 21/4/1 19/4/1 17/4/1 
f 21/5/1 20/5/1 19/5/1 
f 22/3/1 6/3/1 20/3/1 
f 22/5/1 20/5/1 21/5/1 
f 23/1/1 17/1/1 3/1/1 
f 23/4/1 21/4/1 17/4/1 
f 23/4/1 22/4/1 21/4/1 
f 24/3/1 6/3/1 22/3/1 
f 24/4/1 22/4/1 23/4/1 
f 25/2/1 24/2/1 23/2/1 
f 26/3/1 6/3/1 24/3/1 
f 26/2/1 24/2/1 25/2/1 
f 27/2/1 25/2/1 23/2/1 
f 27/5/1 26/5/1 25/5/1 
f 28/3/1 6/3/1 26/3/1 
f 28/5/1 26/5/1 27/5/1 
f 29/1/1 23/1/1 3/1/1 
f 29/2/1 27/2/1 23/2/1 
f 29/2/1 28/2/1 27/2/1 
f 30/3/1 6/3/1 28/3/1 
f 30/2/1 28/2/1 29/2/1 
f 31/4/1 30/4/1 29/4/1 
f 32/3/1 6/3/1 30/3/1 
f 32/4/1 30/4/1 31/4/1 
f 33/4/1 31/4/1 29/4/1 
f 33/5/1 32/5/1 31/5/1 
f 34/3/1 6/3/1 32/3/1 
f 34/5/1 32/5/1 33/5/1 
f 35/1/1 29/1/1 3/1/1 
f 35/4/1 33/4/1 29/4/1 
f 35/4/1 34/4/1 33/4/1 
f 36/3/1 6/3/1 34/3/1 
f 36/4/1 34/4/1 35/4/1 
f 37/1/1 35/1/1 3/1/1 
f 38/2/1 36/2/1 35/2/1 
f 38/1/1 35/1/1 37/1/1 
f 39/3/1 6/3/1 36/3/1 
f 39/2/1 36/2/1 38/2/1 
f 40/3/1 6/3/1 39/3/1 
f 41/1/1 42/1/1 43/1/1 
f 44/1/1 42/1/1 41/1/1 
f 45/1/1 46/1/1 47/1/1 
f 48/1/1 46/1/1 45/1/1 
f 49/5/1 50/5/1 51/5/1 
f 52/5/1 50/5/1 49/5/1 
f 53/5/1 49/5/1 54/5/1 
f 55/5/1 49/5/1 53/5/1 
f 56/5/1 57/5/1 55/5/1 
f 58/5/1 57/5/1 56/5/1 
f 59/5/1 60/5/1 61/5/1 
f 62/5/1 60/5/1 59/5/1 
f 63/5/1 53/5/1 54/5/1 
f 64/5/1 63/5/1 54/5/1 
f 64/5/1 65/5/1 63/5/1 
f 66/5/1 65/5/1 64/5/1 
f 67/5/1 68/5/1 69/5/1 
f 70/5/1 68/5/1 67/5/1 
f 71/5/1 64/5/1 54/5/1 
f 72/5/1 73/5/1 74/5/1 
f 75/5/1 73/5/1 72/5/1 
f 76/5/1 71/5/1 54/5/1 
f 76/5/1 72/5/1 71/5/1 
f 77/5/1 72/5/1 76/5/1 
f 78/5/1 79/5/1 77/5/1 
f 80/5/1 79/5/1 78/5/1 
f 81/6/1 82/6/1 83/6/1 
f 84/6/1 82/6/1 81/6/1 
f 85/6/1 86/6/1 87/6/1 
f 88/6/1 86/6/1 85/6/1 
f 89/5/1 90/5/1 91/5/1 
f 92/5/1 90/5/1 89/5/1 
f 93/5/1 94/5/1 95/5/1 
f 96/5/1 97/5/1 98/5/1 
f 99/5/1 97/5/1 96/5/1 
f 100/5/1 93/5/1 95/5/1 
f 101/5/1 100/5/1 95/5/1 
f 102/5/1 100/5/1 101/5/1 
f 103/5/1 104/5/1 105/5/1 
f 106/5/1 104/5/1 103/5/1 
f 107/5/1 108/5/1 109/5/1 
f 110/5/1 111/5/1 112/5/1 
f 113/5/1 111/5/1 110/5/1 
f 114/5/1 107/5/1 109/5/1 
f 115/5/1 114/5/1 109/5/1 
f 116/5/1 114/5/1 115/5/1 
f 117/5/1 118/5/1 119/5/1 
f 120/5/1 118/5/1 117/5/1 
f 121/5/1 122/5/1 123/5/1 
f 124/5/1 122/5/1 121/5/1 
f 125/7/1 126/7/1 127/7/1 
f 128/7/1 126/7/1 125/7/1 
f 129/7/1 130/7/1 131/7/1 
f 132/7/1 130/7/1 129/7/1 
f 133/2/2 134/2/2 135/2/2 
f 135/2/2 134/2/2 136/2/2 
f 135/4/2 136/4/2 137/4/2 
f 137/4/2 136/4/2 138/4/2 
f 139/4/2 140/4/2 141/4/2 
f 141/4/2 140/4/2 142/4/2 
f 141/2/2 142/2/2 143/2/2 
f 143/2/2 142/2/2 144/2/2 
f 145/2/2 146/2/2 147/2/2 
f 147/2/2 146/2/2 148/2/2 
f 147/4/2 148/4/2 149/4/2 
f 149/4/2 148/4/2 150/4/2 
f 151/4/2 152/4/2 153/4/2 
f 153/4/2 152/4/2 154/4/2 
f 153/2/2 154/2/2 155/2/2 
f 155/2/2 154/2/2 156/2/2 
f 157/2/2 158/2/2 159/2/2 
f 159/2/2 158/2/2 160/2/2 
f 159/4/2 160/4/2 161/4/2 
f 161/4/2 160/4/2 162/4/2 
f 163/4/2 164/4/2 165/4/2 
f 165/4/2 164/4/2 166/4/2 
f 167/1/2 168/1/2 169/1/2 
f 169/1/2 168/1/2 170/1/2 
f 165/2/2 166/2/2 171/2/2 
f 171/2/2 166/2/2 172/2/2 
f 173/8/2 174/8/2 175/8/2 
f 173/8/2 175/8/2 176/8/2 
f 173/8/2 176/8/2 177/8/2 
f 173/8/2 177/8/2 178/8/2 
f 173/8/2 178/8/2 43/8/2 
f 173/8/2 43/8/2 41/8/2 
f 173/8/2 41/8/2 47/8/2 
f 173/8/2 47/8/2 45/8/2 
f 173/8/2 45/8/2 179/8/2 
f 173/8/2 179/8/2 180/8/2 
f 173/8/2 180/8/2 181/8/2 
f 173/8/2 181/8/2 182/8/2 
f 173/8/2 182/8/2 183/8/2 
f 183/8/2 182/8/2 184/8/2 
f 185/5/2 186/5/2 187/5/2 
f 187/5/2 186/5/2 188/5/2 
f 189/5/2 190/5/2 83/5/2 
f 191/5/2 192/5/2 82/5/2 
f 82/5/2 192/5/2 193/5/2 
f 189/5/2 83/5/2 81/5/2 
f 189/5/2 81/5/2 194/5/2 
f 194/5/2 81/5/2 195/5/2 
f 84/5/2 196/5/2 197/5/2 
f 197/5/2 196/5/2 198/5/2 
f 199/5/2 200/5/2 87/5/2 
f 201/5/2 202/5/2 86/5/2 
f 86/5/2 202/5/2 203/5/2 
f 199/5/2 87/5/2 85/5/2 
f 199/5/2 85/5/2 204/5/2 
f 204/5/2 85/5/2 205/5/2 
f 88/5/2 206/5/2 207/5/2 
f 207/5/2 206/5/2 208/5/2 
f 209/5/2 210/5/2 211/5/2 
f 211/5/2 210/5/2 212/5/2 
f 93/6/2 96/6/2 100/6/2 
f 100/6/2 96/6/2 105/6/2 
f 107/6/2 110/6/2 114/6/2 
f 114/6/2 110/6/2 119/6/2 
f 213/5/2 214/5/2 215/5/2 
f 215/5/2 214/5/2 216/5/2 
f 217/5/2 215/5/2 218/5/2 
f 218/5/2 215/5/2 219/5/2 
f 219/5/2 220/5/2 221/5/2 
f 221/5/2 220/5/2 222/5/2 
f 223/5/2 224/5/2 225/5/2 
f 225/5/2 224/5/2 226/5/2 
f 217/5/2 218/5/2 127/5/2 
f 217/5/2 127/5/2 129/5/2 
f 227/5/2 228/5/2 229/5/2 
f 229/5/2 228/5/2 230/5/2 
f 217/5/2 129/5/2 231/5/2 
f 232/5/2 233/5/2 234/5/2 
f 234/5/2 233/5/2 235/5/2 
f 217/5/2 231/5/2 236/5/2 
f 231/5/2 234/5/2 236/5/2 
f 236/5/2 234/5/2 237/5/2 
f 237/5/2 238/5/2 239/5/2 
f 239/5/2 238/5/2 240/5/2 
f 241/1/2 242/1/2 243/1/2 
f 243/1/2 242/1/2 244/1/2 
f 245/7/2 243/7/2 244/7/2 
f 244/1/2 242/1/2 246/1/2 
f 245/7/2 244/7/2 247/7/2 
f 245/7/2 247/7/2 248/7/2 
f 247/1/2 249/1/2 250/1/2 
f 248/7/2 247/7/2 250/7/2 
f 250/1/2 249/1/2 251/1/2 
f 251/1/2 249/1/2 252/1/2 
f 253/3/2 254/3/2 255/3/2 
f 256/5/2 255/5/2 257/5/2 
f 255/3/2 254/3/2 258/3/2 
f 257/5/2 255/5/2 258/5/2 
f 258/3/2 254/3/2 259/3/2 
f 260/5/2 259/5/2 261/5/2 
f 259/3/2 254/3/2 262/3/2 
f 261/5/2 259/5/2 262/5/2 
f 262/3/2 254/3/2 263/3/2 
f 264/5/2 263/5/2 265/5/2 
f 263/3/2 254/3/2 266/3/2 
f 265/5/2 263/5/2 266/5/2 
f 266/3/2 254/3/2 267/3/2 
f 268/5/2 267/5/2 269/5/2 
f 267/3/2 254/3/2 270/3/2 
f 269/5/2 267/5/2 270/5/2 
f 270/3/2 254/3/2 271/3/2 
f 272/5/2 271/5/2 273/5/2 
f 271/3/2 254/3/2 274/3/2 
f 273/5/2 271/5/2 274/5/2 
f 274/3/2 254/3/2 275/3/2 
f 275/3/2 254/3/2 276/3/2 
f 167/1/3 37/1/3 3/1/3 
f 169/1/3 37/1/3 167/1/3 
f 277/5/3 76/5/3 54/5/3 
f 189/5/3 76/5/3 277/5/3 
f 194/5/3 76/5/3 189/5/3 
f 199/5/3 76/5/3 194/5/3 
f 204/5/3 76/5/3 199/5/3 
f 278/5/3 76/5/3 204/5/3 
f 279/6/3 189/6/3 277/6/3 
f 95/6/3 189/6/3 279/6/3 
f 101/6/3 199/6/3 194/6/3 
f 109/6/3 199/6/3 101/6/3 
f 115/6/3 278/6/3 204/6/3 
f 280/6/3 278/6/3 115/6/3 
f 217/5/3 109/5/3 101/5/3 
f 217/5/3 95/5/3 279/5/3 
f 217/5/3 280/5/3 115/5/3 
f 217/5/3 115/5/3 109/5/3 
f 217/5/3 101/5/3 95/5/3 
f 236/5/3 280/5/3 217/5/3 
f 173/8/3 170/8/3 168/8/3 
f 183/8/3 170/8/3 173/8/3 
f 93/6/3 81/6/3 83/6/3 
f 100/6/3 81/6/3 93/6/3 
f 107/6/3 85/6/3 87/6/3 
f 114/6/3 85/6/3 107/6/3 
f 245/7/3 129/7/3 127/7/3 
f 248/7/3 129/7/3 245/7/3 
f 49/5/3 176/5/3 175/5/3 
f 55/5/3 176/5/3 49/5/3 
f 56/5/3 178/5/3 177/5/3 
f 61/5/3 178/5/3 56/5/3 
f 59/1/3 41/1/3 43/1/3 
f 65/5/3 47/5/3 41/5/3 
f 65/1/3 41/1/3 59/1/3 
f 66/1/3 45/1/3 47/1/3 
f 66/5/3 47/5/3 65/5/3 
f 69/1/3 45/1/3 66/1/3 
f 67/5/3 180/5/3 179/5/3 
f 74/5/3 180/5/3 67/5/3 
f 72/5/3 182/5/3 181/5/3 
f 77/5/3 182/5/3 72/5/3 
f 185/5/3 49/5/3 51/5/3 
f 187/5/3 49/5/3 185/5/3 
f 191/5/3 61/5/3 56/5/3 
f 191/5/3 59/5/3 61/5/3 
f 191/5/3 65/5/3 59/5/3 
f 191/5/3 56/5/3 55/5/3 
f 82/5/3 65/5/3 191/5/3 
f 84/5/3 65/5/3 82/5/3 
f 197/5/3 65/5/3 84/5/3 
f 201/5/3 74/5/3 67/5/3 
f 201/5/3 67/5/3 69/5/3 
f 201/5/3 69/5/3 66/5/3 
f 201/5/3 72/5/3 74/5/3 
f 86/5/3 72/5/3 201/5/3 
f 88/5/3 72/5/3 86/5/3 
f 207/5/3 72/5/3 88/5/3 
f 209/5/3 78/5/3 77/5/3 
f 211/5/3 78/5/3 209/5/3 
f 213/5/3 89/5/3 91/5/3 
f 215/5/3 89/5/3 213/5/3 
f 219/5/3 96/5/3 98/5/3 
f 219/5/3 105/5/3 96/5/3 
f 219/5/3 103/5/3 105/5/3 
f 221/5/3 103/5/3 219/5/3 
f 223/5/3 103/5/3 221/5/3 
f 225/5/3 103/5/3 223/5/3 
f 126/5/3 103/5/3 225/5/3 
f 128/5/3 103/5/3 126/5/3 
f 130/5/3 117/5/3 119/5/3 
f 130/5/3 110/5/3 112/5/3 
f 130/5/3 119/5/3 110/5/3 
f 132/5/3 117/5/3 130/5/3 
f 227/5/3 117/5/3 132/5/3 
f 229/5/3 117/5/3 227/5/3 
f 232/5/3 117/5/3 229/5/3 
f 234/5/3 117/5/3 232/5/3 
f 237/5/3 121/5/3 123/5/3 
f 239/5/3 121/5/3 237/5/3 
f 241/1/3 126/1/3 225/1/3 
f 243/1/3 126/1/3 241/1/3 
f 250/1/3 227/1/3 132/1/3 
f 251/1/3 227/1/3 250/1/3 
f 256/5/3 219/5/3 215/5/3 
f 257/5/3 219/5/3 256/5/3 
f 260/5/3 223/5/3 221/5/3 
f 261/5/3 223/5/3 260/5/3 
f 264/5/3 247/5/3 244/5/3 
f 265/5/3 247/5/3 264/5/3 
f 268/5/3 232/5/3 229/5/3 
f 269/5/3 232/5/3 268/5/3 
f 272/5/3 237/5/3 234/5/3 
f 273/5/3 237/5/3 272/5/3 
f 42/3/3 148/3/3 146/3/3 
f 42/3/3 150/3/3 148/3/3 
f 44/3/3 150/3/3 42/3/3 
f 46/3/3 154/3/3 152/3/3 
f 46/3/3 156/3/3 154/3/3 
f 48/3/3 156/3/3 46/3/3 
f 50/3/3 136/3/3 134/3/3 
f 50/3/3 138/3/3 136/3/3 
f 52/3/3 138/3/3 50/3/3 
f 57/3/3 142/3/3 140/3/3 
f 57/3/3 144/3/3 142/3/3 
f 58/3/3 144/3/3 57/3/3 
f 60/3/3 42/3/3 146/3/3 
f 62/3/3 42/3/3 60/3/3 
f 68/3/3 156/3/3 48/3/3 
f 70/3/3 156/3/3 68/3/3 
f 73/3/3 162/3/3 160/3/3 
f 73/3/3 160/3/3 158/3/3 
f 75/3/3 162/3/3 73/3/3 
f 79/3/3 172/3/3 166/3/3 
f 79/3/3 166/3/3 164/3/3 
f 80/3/3 172/3/3 79/3/3 
f 90/3/3 188/3/3 186/3/3 
f 92/3/3 188/3/3 90/3/3 
f 97/3/3 193/3/3 192/3/3 
f 99/3/3 193/3/3 97/3/3 
f 104/3/3 198/3/3 196/3/3 
f 106/3/3 198/3/3 104/3/3 
f 111/3/3 203/3/3 202/3/3 
f 113/3/3 203/3/3 111/3/3 
f 118/3/3 208/3/3 206/3/3 
f 120/3/3 208/3/3 118/3/3 
f 122/3/3 212/3/3 210/3/3 
f 124/3/3 212/3/3 122/3/3 
f 242/3/3 226/3/3 224/3/3 
f 252/3/3 230/3/3 228/3/3 
f 253/3/3 216/3/3 214/3/3 
f 255/3/3 216/3/3 253/3/3 
f 258/3/3 222/3/3 220/3/3 
f 259/3/3 222/3/3 258/3/3 
f 262/3/3 246/3/3 242/3/3 
f 262/3/3 242/3/3 224/3/3 
f 263/3/3 246/3/3 262/3/3 
f 266/3/3 252/3/3 249/3/3 
f 267/3/3 230/3/3 252/3/3 
f 267/3/3 252/3/3 266/3/3 
f 270/3/3 235/3/3 233/3/3 
f 271/3/3 235/3/3 270/3/3 
f 274/3/3 240/3/3 238/3/3 
f 275/3/3 240/3/3 274/3/3 
f 53/5/4 63/5/4 190/5/4 
f 190/5/4 63/5/4 83/5/4 
f 83/5/4 63/5/4 81/5/4 
f 81/5/4 63/5/4 195/5/4 
f 64/5/4 71/5/4 200/5/4 
f 200/5/4 71/5/4 87/5/4 
f 87/5/4 71/5/4 85/5/4 
f 85/5/4 71/5/4 205/5/4 
f 94/5/4 93/5/4 218/5/4 
f 93/5/4 100/5/4 218/5/4 
f 100/5/4 102/5/4 218/5/4 
f 218/5/4 102/5/4 127/5/4 
f 127/5/4 102/5/4 125/5/4 
f 114/5/4 116/5/4 131/5/4 
f 107/5/4 114/5/4 131/5/4 
f 108/5/4 107/5/4 131/5/4 
f 131/5/4 116/5/4 129/5/4 
f 129/5/4 116/5/4 231/5/4 
f 133/8/4 135/8/4 174/8/4 
f 135/8/4 137/8/4 174/8/4 
f 174/8/4 137/8/4 175/8/4 
f 139/8/4 141/8/4 176/8/4 
f 141/8/4 143/8/4 176/8/4 
f 176/8/4 143/8/4 177/8/4 
f 145/8/4 147/8/4 178/8/4 
f 147/8/4 149/8/4 178/8/4 
f 178/8/4 149/8/4 43/8/4 
f 43/8/4 149/8/4 41/8/4 
f 151/8/4 153/8/4 47/8/4 
f 153/8/4 155/8/4 47/8/4 
f 47/8/4 155/8/4 45/8/4 
f 45/8/4 155/8/4 179/8/4 
f 157/8/4 159/8/4 180/8/4 
f 159/8/4 161/8/4 180/8/4 
f 180/8/4 161/8/4 181/8/4 
f 165/8/4 171/8/4 182/8/4 
f 163/8/4 165/8/4 182/8/4 
f 182/8/4 171/8/4 184/8/4 
f 6/3/4 40/3/4 254/3/4 
f 254/3/4 40/3/4 276/3/4 
f 2/1/5 167/1/5 3/1/5 
f 168/1/5 167/1/5 2/1/5 
f 133/2/5 168/2/5 2/2/5 
f 133/8/5 173/8/5 168/8/5 
f 174/8/5 173/8/5 133/8/5 
f 4/2/5 133/2/5 2/2/5 
f 134/2/5 133/2/5 4/2/5 
f 50/5/5 185/5/5 51/5/5 
f 186/5/5 185/5/5 50/5/5 
f 90/5/5 213/5/5 91/5/5 
f 214/5/5 213/5/5 90/5/5 
f 6/3/5 186/3/5 50/3/5 
f 6/3/5 253/3/5 214/3/5 
f 6/3/5 214/3/5 90/3/5 
f 6/3/5 90/3/5 186/3/5 
f 6/3/5 134/3/5 4/3/5 
f 6/3/5 50/3/5 134/3/5 
f 254/3/5 253/3/5 6/3/5 
f 281/5/5 277/5/5 54/5/5 
f 281/6/5 279/6/5 277/6/5 
f 282/5/5 217/5/5 279/5/5 
f 282/6/5 279/6/5 281/6/5 
f 49/5/5 281/5/5 54/5/5 
f 49/5/5 282/5/5 281/5/5 
f 187/5/5 282/5/5 49/5/5 
f 89/5/5 217/5/5 282/5/5 
f 89/5/5 282/5/5 187/5/5 
f 215/5/5 217/5/5 89/5/5 
f 138/5/5 175/5/5 137/5/5 
f 138/5/5 49/5/5 175/5/5 
f 52/5/5 49/5/5 138/5/5 
f 188/5/5 89/5/5 187/5/5 
f 92/5/5 89/5/5 188/5/5 
f 216/5/5 256/5/5 215/5/5 
f 255/5/5 256/5/5 216/5/5 
f 82/6/5 93/6/5 83/6/5 
f 96/6/5 93/6/5 82/6/5 
f 144/5/5 56/5/5 177/5/5 
f 144/5/5 177/5/5 143/5/5 
f 58/5/5 56/5/5 144/5/5 
f 193/5/5 96/5/5 82/5/5 
f 99/5/5 96/5/5 193/5/5 
f 222/5/5 260/5/5 221/5/5 
f 259/5/5 260/5/5 222/5/5 
f 42/1/5 59/1/5 43/1/5 
f 62/1/5 59/1/5 42/1/5 
f 226/1/5 241/1/5 225/1/5 
f 242/1/5 241/1/5 226/1/5 
f 126/7/5 245/7/5 127/7/5 
f 243/7/5 245/7/5 126/7/5 
f 195/6/5 101/6/5 194/6/5 
f 102/6/5 101/6/5 195/6/5 
f 65/5/5 195/5/5 63/5/5 
f 65/5/5 102/5/5 195/5/5 
f 65/5/5 125/5/5 102/5/5 
f 197/5/5 125/5/5 65/5/5 
f 103/5/5 125/5/5 197/5/5 
f 128/5/5 125/5/5 103/5/5 
f 150/5/5 41/5/5 149/5/5 
f 44/5/5 41/5/5 150/5/5 
f 198/5/5 103/5/5 197/5/5 
f 106/5/5 103/5/5 198/5/5 
f 246/5/5 264/5/5 244/5/5 
f 263/5/5 264/5/5 246/5/5 
f 86/6/5 107/6/5 87/6/5 
f 110/6/5 107/6/5 86/6/5 
f 156/5/5 67/5/5 179/5/5 
f 156/5/5 179/5/5 155/5/5 
f 70/5/5 67/5/5 156/5/5 
f 203/5/5 110/5/5 86/5/5 
f 113/5/5 110/5/5 203/5/5 
f 230/5/5 268/5/5 229/5/5 
f 267/5/5 268/5/5 230/5/5 
f 205/6/5 115/6/5 204/6/5 
f 116/6/5 115/6/5 205/6/5 
f 72/5/5 205/5/5 71/5/5 
f 72/5/5 116/5/5 205/5/5 
f 72/5/5 231/5/5 116/5/5 
f 207/5/5 231/5/5 72/5/5 
f 117/5/5 231/5/5 207/5/5 
f 234/5/5 231/5/5 117/5/5 
f 162/5/5 181/5/5 161/5/5 
f 162/5/5 72/5/5 181/5/5 
f 75/5/5 72/5/5 162/5/5 
f 208/5/5 117/5/5 207/5/5 
f 120/5/5 117/5/5 208/5/5 
f 235/5/5 272/5/5 234/5/5 
f 271/5/5 272/5/5 235/5/5 
f 189/6/6 95/6/6 190/6/6 
f 190/6/6 95/6/6 94/6/6 
f 53/5/6 190/5/6 55/5/6 
f 190/5/6 94/5/6 55/5/6 
f 94/5/6 218/5/6 55/5/6 
f 55/5/6 218/5/6 191/5/6 
f 191/5/6 218/5/6 98/5/6 
f 98/5/6 218/5/6 219/5/6 
f 139/5/6 176/5/6 140/5/6 
f 176/5/6 55/5/6 140/5/6 
f 140/5/6 55/5/6 57/5/6 
f 191/5/6 98/5/6 192/5/6 
f 192/5/6 98/5/6 97/5/6 
f 219/5/6 257/5/6 220/5/6 
f 220/5/6 257/5/6 258/5/6 
f 81/6/6 100/6/6 84/6/6 
f 84/6/6 100/6/6 105/6/6 
f 178/5/6 61/5/6 146/5/6 
f 145/5/6 178/5/6 146/5/6 
f 146/5/6 61/5/6 60/5/6 
f 84/5/6 105/5/6 196/5/6 
f 196/5/6 105/5/6 104/5/6 
f 223/5/6 261/5/6 224/5/6 
f 224/5/6 261/5/6 262/5/6 
f 199/6/6 109/6/6 200/6/6 
f 200/6/6 109/6/6 108/6/6 
f 64/5/6 200/5/6 66/5/6 
f 200/5/6 108/5/6 66/5/6 
f 108/5/6 131/5/6 66/5/6 
f 66/5/6 131/5/6 201/5/6 
f 201/5/6 131/5/6 112/5/6 
f 112/5/6 131/5/6 130/5/6 
f 151/5/6 47/5/6 152/5/6 
f 152/5/6 47/5/6 46/5/6 
f 201/5/6 112/5/6 202/5/6 
f 202/5/6 112/5/6 111/5/6 
f 247/5/6 265/5/6 249/5/6 
f 249/5/6 265/5/6 266/5/6 
f 129/7/6 248/7/6 132/7/6 
f 132/7/6 248/7/6 250/7/6 
f 45/1/6 69/1/6 48/1/6 
f 48/1/6 69/1/6 68/1/6 
f 227/1/6 251/1/6 228/1/6 
f 228/1/6 251/1/6 252/1/6 
f 85/6/6 114/6/6 88/6/6 
f 88/6/6 114/6/6 119/6/6 
f 180/5/6 74/5/6 158/5/6 
f 157/5/6 180/5/6 158/5/6 
f 158/5/6 74/5/6 73/5/6 
f 88/5/6 119/5/6 206/5/6 
f 206/5/6 119/5/6 118/5/6 
f 232/5/6 269/5/6 233/5/6 
f 233/5/6 269/5/6 270/5/6 
f 76/5/6 278/5/6 283/5/6 
f 278/6/6 280/6/6 283/6/6 
f 280/5/6 236/5/6 284/5/6 
f 283/6/6 280/6/6 284/6/6 
f 76/5/6 283/5/6 77/5/6 
f 283/5/6 284/5/6 77/5/6 
f 77/5/6 284/5/6 209/5/6 
f 284/5/6 236/5/6 123/5/6 
f 209/5/6 284/5/6 123/5/6 
f 123/5/6 236/5/6 237/5/6 
f 163/5/6 182/5/6 164/5/6 
f 182/5/6 77/5/6 164/5/6 
f 164/5/6 77/5/6 79/5/6 
f 209/5/6 123/5/6 210/5/6 
f 210/5/6 123/5/6 122/5/6 
f 237/5/6 273/5/6 238/5/6 
f 238/5/6 273/5/6 274/5/6 
f 37/1/6 169/1/6 38/1/6 
f 38/1/6 169/1/6 170/1/6 
f 38/2/6 170/2/6 171/2/6 
f 170/8/6 183/8/6 171/8/6 
f 171/8/6 183/8/6 184/8/6 
f 38/2/6 171/2/6 39/2/6 
f 39/2/6 171/2/6 172/2/6 
f 78/5/6 211/5/6 80/5/6 
f 80/5/6 211/5/6 212/5/6 
f 121/5/6 239/5/6 124/5/6 
f 124/5/6 239/5/6 240/5/6 
f 80/3/6 212/3/6 40/3/6 
f 240/3/6 275/3/6 40/3/6 
f 124/3/6 240/3/6 40/3/6 
f 212/3/6 124/3/6 40/3/6 
f 39/3/6 172/3/6 40/3/6 
f 172/3/6 80/3/6 40/3/6 
f 40/3/6 275/3/6 276/3/6 
# 0 polygons - 600 triangles

