# MagicaVoxel @ Ephtracy

# group
g Gate-2

# material
mtllib Gate-2.mtl
usemtl palette

# normals
vn -1 0 0
vn 1 0 0
vn 0 0 1
vn 0 0 -1
vn 0 -1 0
vn 0 1 0

# texcoords
vt 0.970703 0.5
vt 0.978516 0.5
vt 0.986328 0.5

# verts
v -63 0 -0
v -63 0 -3
v -63 0 -5
v -63 41 -0
v -63 41 -3
v -63 48 -3
v -63 48 -5
v -53 0 5
v -53 0 -0
v -53 41 5
v -53 41 -0
v -34 43 -3
v -34 43 -5
v -34 48 -3
v -34 48 -5
v -23 0 5
v -23 0 -0
v -23 40 5
v -23 40 -0
v -17 43 -3
v -17 43 -5
v -17 48 -3
v -17 48 -5
v 4 43 -3
v 4 43 -5
v 4 48 -3
v 4 48 -5
v 13 0 5
v 13 0 -0
v 13 40 5
v 13 40 -0
v 25 43 -3
v 25 43 -5
v 25 48 -3
v 25 48 -5
v 42 43 -3
v 42 43 -5
v 42 48 -3
v 42 48 -5
v 43 0 5
v 43 0 -0
v 43 41 5
v 43 41 -0
v -43 0 5
v -43 0 -0
v -43 41 5
v -43 41 -0
v -42 43 -3
v -42 43 -5
v -42 48 -3
v -42 48 -5
v -25 43 -3
v -25 43 -5
v -25 48 -3
v -25 48 -5
v -13 0 5
v -13 0 -0
v -13 40 5
v -13 40 -0
v -4 43 -3
v -4 43 -5
v -4 48 -3
v -4 48 -5
v 17 43 -3
v 17 43 -5
v 17 48 -3
v 17 48 -5
v 23 0 5
v 23 0 -0
v 23 40 5
v 23 40 -0
v 34 43 -3
v 34 43 -5
v 34 48 -3
v 34 48 -5
v 53 0 5
v 53 0 -0
v 53 41 5
v 53 41 -0
v 63 0 -0
v 63 0 -3
v 63 0 -5
v 63 41 -0
v 63 41 -3
v 63 48 -3
v 63 48 -5
v -53 0 5
v -53 41 5
v -43 0 5
v -43 41 5
v -23 0 5
v -23 40 5
v -13 0 5
v -13 40 5
v 13 0 5
v 13 40 5
v 23 0 5
v 23 40 5
v 43 0 5
v 43 41 5
v 53 0 5
v 53 41 5
v -63 0 -0
v -63 41 -0
v -53 0 -0
v -53 41 -0
v -43 0 -0
v -43 41 -0
v -23 0 -0
v -23 40 -0
v -13 0 -0
v -13 40 -0
v 13 0 -0
v 13 40 -0
v 23 0 -0
v 23 40 -0
v 43 0 -0
v 43 41 -0
v 53 0 -0
v 53 41 -0
v 63 0 -0
v 63 41 -0
v -63 41 -3
v -63 48 -3
v -42 43 -3
v -42 48 -3
v -34 43 -3
v -34 48 -3
v -25 43 -3
v -25 48 -3
v -17 43 -3
v -17 48 -3
v -4 43 -3
v -4 48 -3
v 4 43 -3
v 4 48 -3
v 17 43 -3
v 17 48 -3
v 25 43 -3
v 25 48 -3
v 34 43 -3
v 34 48 -3
v 42 43 -3
v 42 48 -3
v 63 41 -3
v 63 48 -3
v -63 0 -5
v -63 48 -5
v -42 43 -5
v -42 48 -5
v -34 43 -5
v -34 48 -5
v -25 43 -5
v -25 48 -5
v -17 43 -5
v -17 48 -5
v -4 43 -5
v -4 48 -5
v 4 43 -5
v 4 48 -5
v 17 43 -5
v 17 48 -5
v 25 43 -5
v 25 48 -5
v 34 43 -5
v 34 48 -5
v 42 43 -5
v 42 48 -5
v 63 0 -5
v 63 48 -5
v -53 0 5
v -43 0 5
v -23 0 5
v -13 0 5
v 13 0 5
v 23 0 5
v 43 0 5
v 53 0 5
v -63 0 -0
v -53 0 -0
v -43 0 -0
v -23 0 -0
v -13 0 -0
v 13 0 -0
v 23 0 -0
v 43 0 -0
v 53 0 -0
v 63 0 -0
v -63 0 -3
v 63 0 -3
v -63 0 -5
v 63 0 -5
v -23 40 5
v -13 40 5
v 13 40 5
v 23 40 5
v -23 40 -0
v -13 40 -0
v 13 40 -0
v 23 40 -0
v -53 41 5
v -43 41 5
v 43 41 5
v 53 41 5
v -63 41 -0
v -53 41 -0
v -43 41 -0
v 43 41 -0
v 53 41 -0
v 63 41 -0
v -63 41 -3
v 63 41 -3
v -42 43 -3
v -34 43 -3
v -25 43 -3
v -17 43 -3
v -4 43 -3
v 4 43 -3
v 17 43 -3
v 25 43 -3
v 34 43 -3
v 42 43 -3
v -42 43 -5
v -34 43 -5
v -25 43 -5
v -17 43 -5
v -4 43 -5
v 4 43 -5
v 17 43 -5
v 25 43 -5
v 34 43 -5
v 42 43 -5
v -63 48 -3
v -42 48 -3
v -34 48 -3
v -25 48 -3
v -17 48 -3
v -4 48 -3
v 4 48 -3
v 17 48 -3
v 25 48 -3
v 34 48 -3
v 42 48 -3
v 63 48 -3
v -63 48 -5
v -42 48 -5
v -34 48 -5
v -25 48 -5
v -17 48 -5
v -4 48 -5
v 4 48 -5
v 17 48 -5
v 25 48 -5
v 34 48 -5
v 42 48 -5
v 63 48 -5

# faces
f 4/2/1 2/2/1 1/2/1
f 5/1/1 3/1/1 2/1/1
f 5/2/1 2/2/1 4/2/1
f 6/1/1 3/1/1 5/1/1
f 7/1/1 3/1/1 6/1/1
f 10/3/1 9/3/1 8/3/1
f 11/3/1 9/3/1 10/3/1
f 14/1/1 13/1/1 12/1/1
f 15/1/1 13/1/1 14/1/1
f 18/3/1 17/3/1 16/3/1
f 19/3/1 17/3/1 18/3/1
f 22/1/1 21/1/1 20/1/1
f 23/1/1 21/1/1 22/1/1
f 26/1/1 25/1/1 24/1/1
f 27/1/1 25/1/1 26/1/1
f 30/3/1 29/3/1 28/3/1
f 31/3/1 29/3/1 30/3/1
f 34/1/1 33/1/1 32/1/1
f 35/1/1 33/1/1 34/1/1
f 38/1/1 37/1/1 36/1/1
f 39/1/1 37/1/1 38/1/1
f 42/3/1 41/3/1 40/3/1
f 43/3/1 41/3/1 42/3/1
f 44/3/2 45/3/2 46/3/2
f 46/3/2 45/3/2 47/3/2
f 48/1/2 49/1/2 50/1/2
f 50/1/2 49/1/2 51/1/2
f 52/1/2 53/1/2 54/1/2
f 54/1/2 53/1/2 55/1/2
f 56/3/2 57/3/2 58/3/2
f 58/3/2 57/3/2 59/3/2
f 60/1/2 61/1/2 62/1/2
f 62/1/2 61/1/2 63/1/2
f 64/1/2 65/1/2 66/1/2
f 66/1/2 65/1/2 67/1/2
f 68/3/2 69/3/2 70/3/2
f 70/3/2 69/3/2 71/3/2
f 72/1/2 73/1/2 74/1/2
f 74/1/2 73/1/2 75/1/2
f 76/3/2 77/3/2 78/3/2
f 78/3/2 77/3/2 79/3/2
f 80/2/2 81/2/2 83/2/2
f 81/1/2 82/1/2 84/1/2
f 83/2/2 81/2/2 84/2/2
f 84/1/2 82/1/2 85/1/2
f 85/1/2 82/1/2 86/1/2
f 89/3/3 88/3/3 87/3/3
f 90/3/3 88/3/3 89/3/3
f 93/3/3 92/3/3 91/3/3
f 94/3/3 92/3/3 93/3/3
f 97/3/3 96/3/3 95/3/3
f 98/3/3 96/3/3 97/3/3
f 101/3/3 100/3/3 99/3/3
f 102/3/3 100/3/3 101/3/3
f 105/2/3 104/2/3 103/2/3
f 106/2/3 104/2/3 105/2/3
f 109/2/3 108/2/3 107/2/3
f 110/2/3 108/2/3 109/2/3
f 112/2/3 108/2/3 110/2/3
f 113/2/3 112/2/3 111/2/3
f 114/2/3 108/2/3 112/2/3
f 114/2/3 112/2/3 113/2/3
f 116/2/3 108/2/3 114/2/3
f 117/2/3 116/2/3 115/2/3
f 118/2/3 108/2/3 116/2/3
f 118/2/3 116/2/3 117/2/3
f 121/2/3 120/2/3 119/2/3
f 122/2/3 120/2/3 121/2/3
f 125/1/3 124/1/3 123/1/3
f 126/1/3 124/1/3 125/1/3
f 127/1/3 125/1/3 123/1/3
f 129/1/3 127/1/3 123/1/3
f 129/1/3 128/1/3 127/1/3
f 130/1/3 128/1/3 129/1/3
f 131/1/3 129/1/3 123/1/3
f 133/1/3 131/1/3 123/1/3
f 133/1/3 132/1/3 131/1/3
f 134/1/3 132/1/3 133/1/3
f 135/1/3 133/1/3 123/1/3
f 137/1/3 135/1/3 123/1/3
f 137/1/3 136/1/3 135/1/3
f 138/1/3 136/1/3 137/1/3
f 139/1/3 137/1/3 123/1/3
f 141/1/3 139/1/3 123/1/3
f 141/1/3 140/1/3 139/1/3
f 142/1/3 140/1/3 141/1/3
f 143/1/3 141/1/3 123/1/3
f 145/1/3 143/1/3 123/1/3
f 145/1/3 144/1/3 143/1/3
f 146/1/3 144/1/3 145/1/3
f 147/1/4 148/1/4 149/1/4
f 149/1/4 148/1/4 150/1/4
f 147/1/4 149/1/4 151/1/4
f 147/1/4 151/1/4 153/1/4
f 151/1/4 152/1/4 153/1/4
f 153/1/4 152/1/4 154/1/4
f 147/1/4 153/1/4 155/1/4
f 147/1/4 155/1/4 157/1/4
f 155/1/4 156/1/4 157/1/4
f 157/1/4 156/1/4 158/1/4
f 147/1/4 157/1/4 159/1/4
f 147/1/4 159/1/4 161/1/4
f 159/1/4 160/1/4 161/1/4
f 161/1/4 160/1/4 162/1/4
f 147/1/4 161/1/4 163/1/4
f 147/1/4 163/1/4 165/1/4
f 163/1/4 164/1/4 165/1/4
f 165/1/4 164/1/4 166/1/4
f 147/1/4 165/1/4 167/1/4
f 147/1/4 167/1/4 169/1/4
f 167/1/4 168/1/4 169/1/4
f 169/1/4 168/1/4 170/1/4
f 180/3/5 172/3/5 171/3/5
f 181/3/5 172/3/5 180/3/5
f 182/3/5 174/3/5 173/3/5
f 183/3/5 174/3/5 182/3/5
f 184/3/5 176/3/5 175/3/5
f 185/3/5 176/3/5 184/3/5
f 186/3/5 178/3/5 177/3/5
f 187/3/5 178/3/5 186/3/5
f 189/2/5 185/2/5 184/2/5
f 189/2/5 188/2/5 187/2/5
f 189/2/5 187/2/5 186/2/5
f 189/2/5 186/2/5 185/2/5
f 189/2/5 181/2/5 180/2/5
f 189/2/5 184/2/5 183/2/5
f 189/2/5 183/2/5 182/2/5
f 189/2/5 182/2/5 181/2/5
f 189/2/5 180/2/5 179/2/5
f 190/2/5 188/2/5 189/2/5
f 191/1/5 190/1/5 189/1/5
f 192/1/5 190/1/5 191/1/5
f 193/3/6 194/3/6 197/3/6
f 197/3/6 194/3/6 198/3/6
f 195/3/6 196/3/6 199/3/6
f 199/3/6 196/3/6 200/3/6
f 201/3/6 202/3/6 206/3/6
f 206/3/6 202/3/6 207/3/6
f 203/3/6 204/3/6 208/3/6
f 208/3/6 204/3/6 209/3/6
f 206/2/6 207/2/6 211/2/6
f 209/2/6 210/2/6 211/2/6
f 208/2/6 209/2/6 211/2/6
f 207/2/6 208/2/6 211/2/6
f 205/2/6 206/2/6 211/2/6
f 211/2/6 210/2/6 212/2/6
f 213/1/6 214/1/6 223/1/6
f 223/1/6 214/1/6 224/1/6
f 215/1/6 216/1/6 225/1/6
f 225/1/6 216/1/6 226/1/6
f 217/1/6 218/1/6 227/1/6
f 227/1/6 218/1/6 228/1/6
f 219/1/6 220/1/6 229/1/6
f 229/1/6 220/1/6 230/1/6
f 221/1/6 222/1/6 231/1/6
f 231/1/6 222/1/6 232/1/6
f 233/1/6 234/1/6 245/1/6
f 245/1/6 234/1/6 246/1/6
f 235/1/6 236/1/6 247/1/6
f 247/1/6 236/1/6 248/1/6
f 237/1/6 238/1/6 249/1/6
f 249/1/6 238/1/6 250/1/6
f 239/1/6 240/1/6 251/1/6
f 251/1/6 240/1/6 252/1/6
f 241/1/6 242/1/6 253/1/6
f 253/1/6 242/1/6 254/1/6
f 243/1/6 244/1/6 255/1/6
f 255/1/6 244/1/6 256/1/6
