# MagicaVoxel @ Ephtracy

# group
g Gate-1

# material
mtllib Gate-1.mtl
usemtl palette

# normals
vn -1 0 0
vn 1 0 0
vn 0 0 1
vn 0 0 -1
vn 0 -1 0
vn 0 1 0

# texcoords
vt 0.166016 0.5
vt 0.669922 0.5
vt 0.810547 0.5
vt 0.962891 0.5
vt 0.982422 0.5
vt 0.986328 0.5
vt 0.990234 0.5
vt 0.994141 0.5

# verts
v -9 0 3
v -9 0 1
v -9 0 -2
v -9 0 -3
v -9 2 1
v -9 2 -2
v -9 3 -0
v -9 3 -2
v -9 5 -0
v -9 5 -2
v -9 6 1
v -9 6 -2
v -9 9 -0
v -9 9 -2
v -9 11 -0
v -9 11 -2
v -9 15 1
v -9 15 -2
v -9 17 -0
v -9 17 -2
v -9 18 -0
v -9 18 -2
v -9 20 1
v -9 20 -2
v -9 24 -0
v -9 24 -2
v -9 26 -0
v -9 26 -2
v -9 29 1
v -9 29 -2
v -9 30 -0
v -9 30 -2
v -9 32 -0
v -9 32 -2
v -9 33 1
v -9 33 -2
v -9 35 3
v -9 35 1
v -9 35 -2
v -9 35 -3
v -6 14 -0
v -6 14 -2
v -6 17 -0
v -6 17 -2
v -6 18 -0
v -6 18 -2
v -6 21 -0
v -6 21 -2
v -4 0 -0
v -4 0 -2
v -4 3 3
v -4 3 -0
v -4 3 -2
v -4 5 1
v -4 5 -0
v -4 5 -2
v -4 9 -0
v -4 9 -2
v -4 11 -0
v -4 11 -2
v -4 14 -0
v -4 14 -2
v -4 17 1
v -4 17 -0
v -4 18 1
v -4 18 -0
v -4 21 -0
v -4 21 -2
v -4 24 -0
v -4 24 -2
v -4 26 -0
v -4 26 -2
v -4 30 1
v -4 30 -0
v -4 30 -2
v -4 32 3
v -4 32 -0
v -4 32 -2
v -4 35 -0
v -4 35 -2
v -3 9 1
v -3 9 -0
v -3 11 1
v -3 11 -0
v -3 24 1
v -3 24 -0
v -3 26 1
v -3 26 -0
v 3 0 -0
v 3 0 -2
v 3 3 -0
v 3 3 -2
v 3 5 3
v 3 5 1
v 3 5 -0
v 3 5 -2
v 3 9 1
v 3 9 -0
v 3 9 -2
v 3 11 1
v 3 11 -0
v 3 11 -2
v 3 17 3
v 3 17 1
v 3 17 -0
v 3 17 -2
v 3 18 3
v 3 18 1
v 3 18 -0
v 3 18 -2
v 3 24 1
v 3 24 -0
v 3 24 -2
v 3 26 1
v 3 26 -0
v 3 26 -2
v 3 30 3
v 3 30 1
v 3 30 -0
v 3 30 -2
v 3 32 -0
v 3 32 -2
v 3 35 -0
v 3 35 -2
v 5 15 1
v 5 15 -0
v 5 17 1
v 5 17 -0
v 5 18 1
v 5 18 -0
v 5 20 1
v 5 20 -0
v -7 0 3
v -7 0 1
v -7 0 -0
v -7 0 -2
v -7 2 -0
v -7 2 -2
v -7 3 -0
v -7 3 -2
v -7 5 -0
v -7 5 -2
v -7 6 -0
v -7 6 -2
v -7 9 -0
v -7 9 -2
v -7 11 -0
v -7 11 -2
v -7 15 -0
v -7 15 -2
v -7 17 -0
v -7 17 -2
v -7 18 -0
v -7 18 -2
v -7 20 -0
v -7 20 -2
v -7 24 -0
v -7 24 -2
v -7 26 -0
v -7 26 -2
v -7 29 -0
v -7 29 -2
v -7 30 -0
v -7 30 -2
v -7 32 -0
v -7 32 -2
v -7 33 -0
v -7 33 -2
v -7 35 3
v -7 35 1
v -7 35 -0
v -7 35 -2
v -6 0 1
v -6 0 -0
v -6 3 -0
v -6 5 -0
v -6 9 -0
v -6 11 -0
v -6 14 -0
v -6 17 -0
v -6 18 -0
v -6 21 -0
v -6 24 -0
v -6 26 -0
v -6 30 -0
v -6 32 -0
v -6 35 1
v -6 35 -0
v -3 0 -0
v -3 0 -2
v -3 3 -0
v -3 3 -2
v -3 5 3
v -3 5 1
v -3 5 -0
v -3 5 -2
v -3 9 1
v -3 9 -0
v -3 9 -2
v -3 11 1
v -3 11 -0
v -3 11 -2
v -3 17 3
v -3 17 1
v -3 17 -0
v -3 17 -2
v -3 18 3
v -3 18 1
v -3 18 -0
v -3 18 -2
v -3 24 1
v -3 24 -0
v -3 24 -2
v -3 26 1
v -3 26 -0
v -3 26 -2
v -3 30 3
v -3 30 1
v -3 30 -0
v -3 30 -2
v -3 32 -0
v -3 32 -2
v -3 35 -0
v -3 35 -2
v 3 9 1
v 3 9 -0
v 3 11 1
v 3 11 -0
v 3 24 1
v 3 24 -0
v 3 26 1
v 3 26 -0
v 5 0 -0
v 5 0 -2
v 5 3 3
v 5 3 -0
v 5 3 -2
v 5 5 1
v 5 5 -0
v 5 5 -2
v 5 9 -0
v 5 9 -2
v 5 11 -0
v 5 11 -2
v 5 14 -0
v 5 14 -2
v 5 15 1
v 5 20 1
v 5 21 -0
v 5 21 -2
v 5 24 -0
v 5 24 -2
v 5 26 -0
v 5 26 -2
v 5 30 1
v 5 30 -0
v 5 30 -2
v 5 32 3
v 5 32 -0
v 5 32 -2
v 5 35 -0
v 5 35 -2
v 8 14 -0
v 8 14 -2
v 8 15 1
v 8 15 -0
v 8 17 -0
v 8 17 -2
v 8 18 -0
v 8 18 -2
v 8 20 1
v 8 20 -0
v 8 21 -0
v 8 21 -2
v 9 0 -2
v 9 0 -3
v 9 3 -0
v 9 3 -2
v 9 5 -0
v 9 5 -2
v 9 9 -0
v 9 9 -2
v 9 11 -0
v 9 11 -2
v 9 17 -0
v 9 17 -2
v 9 18 -0
v 9 18 -2
v 9 24 -0
v 9 24 -2
v 9 26 -0
v 9 26 -2
v 9 30 -0
v 9 30 -2
v 9 32 -0
v 9 32 -2
v 9 35 -2
v 9 35 -3
v -9 0 3
v -9 35 3
v -7 0 3
v -7 35 3
v -4 3 3
v -4 32 3
v -3 3 3
v -3 5 3
v -3 17 3
v -3 18 3
v -3 30 3
v -3 32 3
v 3 3 3
v 3 5 3
v 3 17 3
v 3 18 3
v 3 30 3
v 3 32 3
v 5 3 3
v 5 32 3
v -7 0 1
v -7 35 1
v -6 0 1
v -6 35 1
v -3 9 1
v -3 11 1
v -3 24 1
v -3 26 1
v 3 9 1
v 3 11 1
v 3 24 1
v 3 26 1
v 5 15 1
v 5 20 1
v 8 15 1
v 8 20 1
v -6 3 -0
v -6 5 -0
v -6 9 -0
v -6 11 -0
v -6 14 -0
v -6 17 -0
v -6 18 -0
v -6 21 -0
v -6 24 -0
v -6 26 -0
v -6 30 -0
v -6 32 -0
v -4 0 -0
v -4 3 -0
v -4 5 -0
v -4 9 -0
v -4 11 -0
v -4 14 -0
v -4 17 -0
v -4 18 -0
v -4 21 -0
v -4 24 -0
v -4 26 -0
v -4 30 -0
v -4 32 -0
v -4 35 -0
v -3 0 -0
v -3 3 -0
v -3 5 -0
v -3 9 -0
v -3 11 -0
v -3 17 -0
v -3 18 -0
v -3 24 -0
v -3 26 -0
v -3 30 -0
v -3 32 -0
v -3 35 -0
v 3 0 -0
v 3 3 -0
v 3 5 -0
v 3 9 -0
v 3 11 -0
v 3 17 -0
v 3 18 -0
v 3 24 -0
v 3 26 -0
v 3 30 -0
v 3 32 -0
v 3 35 -0
v 5 0 -0
v 5 3 -0
v 5 5 -0
v 5 9 -0
v 5 11 -0
v 5 14 -0
v 5 15 -0
v 5 17 -0
v 5 18 -0
v 5 20 -0
v 5 21 -0
v 5 24 -0
v 5 26 -0
v 5 30 -0
v 5 32 -0
v 5 35 -0
v 8 14 -0
v 8 15 -0
v 8 17 -0
v 8 18 -0
v 8 20 -0
v 8 21 -0
v 9 3 -0
v 9 5 -0
v 9 9 -0
v 9 11 -0
v 9 17 -0
v 9 18 -0
v 9 24 -0
v 9 26 -0
v 9 30 -0
v 9 32 -0
v -7 0 -2
v -7 2 -2
v -7 3 -2
v -7 5 -2
v -7 6 -2
v -7 9 -2
v -7 11 -2
v -7 15 -2
v -7 17 -2
v -7 18 -2
v -7 20 -2
v -7 24 -2
v -7 26 -2
v -7 29 -2
v -7 30 -2
v -7 32 -2
v -7 33 -2
v -7 35 -2
v -6 14 -2
v -6 17 -2
v -6 18 -2
v -6 21 -2
v -4 0 -2
v -4 3 -2
v -4 5 -2
v -4 9 -2
v -4 11 -2
v -4 14 -2
v -4 21 -2
v -4 24 -2
v -4 26 -2
v -4 30 -2
v -4 32 -2
v -4 35 -2
v -3 0 -2
v -3 3 -2
v -3 5 -2
v -3 9 -2
v -3 11 -2
v -3 17 -2
v -3 18 -2
v -3 24 -2
v -3 26 -2
v -3 30 -2
v -3 32 -2
v -3 35 -2
v 3 0 -2
v 3 3 -2
v 3 5 -2
v 3 9 -2
v 3 11 -2
v 3 17 -2
v 3 18 -2
v 3 24 -2
v 3 26 -2
v 3 30 -2
v 3 32 -2
v 3 35 -2
v 5 0 -2
v 5 3 -2
v 5 5 -2
v 5 9 -2
v 5 11 -2
v 5 14 -2
v 5 21 -2
v 5 24 -2
v 5 26 -2
v 5 30 -2
v 5 32 -2
v 5 35 -2
v 8 14 -2
v 8 17 -2
v 8 18 -2
v 8 21 -2
v 9 0 -2
v 9 3 -2
v 9 5 -2
v 9 9 -2
v 9 11 -2
v 9 17 -2
v 9 18 -2
v 9 24 -2
v 9 26 -2
v 9 30 -2
v 9 32 -2
v 9 35 -2
v -4 5 1
v -4 17 1
v -4 18 1
v -4 30 1
v -3 5 1
v -3 9 1
v -3 11 1
v -3 17 1
v -3 18 1
v -3 24 1
v -3 26 1
v -3 30 1
v 3 5 1
v 3 9 1
v 3 11 1
v 3 17 1
v 3 18 1
v 3 24 1
v 3 26 1
v 3 30 1
v 5 5 1
v 5 15 1
v 5 17 1
v 5 18 1
v 5 20 1
v 5 30 1
v -7 0 -0
v -7 2 -0
v -7 3 -0
v -7 5 -0
v -7 6 -0
v -7 9 -0
v -7 11 -0
v -7 15 -0
v -7 17 -0
v -7 18 -0
v -7 20 -0
v -7 24 -0
v -7 26 -0
v -7 29 -0
v -7 30 -0
v -7 32 -0
v -7 33 -0
v -7 35 -0
v -6 0 -0
v -6 3 -0
v -6 5 -0
v -6 9 -0
v -6 11 -0
v -6 14 -0
v -6 17 -0
v -6 18 -0
v -6 21 -0
v -6 24 -0
v -6 26 -0
v -6 30 -0
v -6 32 -0
v -6 35 -0
v -9 0 -3
v -9 35 -3
v 9 0 -3
v 9 35 -3
v -9 0 3
v -7 0 3
v -9 0 1
v -7 0 1
v -6 0 1
v -7 0 -0
v -6 0 -0
v -4 0 -0
v -3 0 -0
v 3 0 -0
v 5 0 -0
v -9 0 -2
v -7 0 -2
v -4 0 -2
v -3 0 -2
v 3 0 -2
v 5 0 -2
v 9 0 -2
v -9 0 -3
v 9 0 -3
v -4 3 3
v -3 3 3
v 3 3 3
v 5 3 3
v -3 3 1
v 3 3 1
v -7 3 -0
v -6 3 -0
v -4 3 -0
v -3 3 -0
v 3 3 -0
v 5 3 -0
v 9 3 -0
v -7 3 -2
v -4 3 -2
v -3 3 -2
v 3 3 -2
v 5 3 -2
v 9 3 -2
v -3 9 1
v 3 9 1
v -7 9 -0
v -6 9 -0
v -4 9 -0
v -3 9 -0
v 3 9 -0
v 5 9 -0
v 9 9 -0
v -7 9 -2
v -4 9 -2
v -3 9 -2
v 3 9 -2
v 5 9 -2
v 9 9 -2
v -6 14 -0
v -4 14 -0
v 5 14 -0
v 8 14 -0
v -6 14 -2
v -4 14 -2
v 5 14 -2
v 8 14 -2
v 5 15 1
v 8 15 1
v 5 15 -0
v 8 15 -0
v -3 17 3
v 3 17 3
v -4 17 1
v -3 17 1
v 3 17 1
v 5 17 1
v -7 17 -0
v -6 17 -0
v -4 17 -0
v -3 17 -0
v 3 17 -0
v 5 17 -0
v 8 17 -0
v 9 17 -0
v -7 17 -2
v -6 17 -2
v -3 17 -2
v 3 17 -2
v 8 17 -2
v 9 17 -2
v -3 24 1
v 3 24 1
v -7 24 -0
v -6 24 -0
v -4 24 -0
v -3 24 -0
v 3 24 -0
v 5 24 -0
v 9 24 -0
v -7 24 -2
v -4 24 -2
v -3 24 -2
v 3 24 -2
v 5 24 -2
v 9 24 -2
v -3 30 3
v 3 30 3
v -4 30 1
v -3 30 1
v 3 30 1
v 5 30 1
v -7 30 -0
v -6 30 -0
v -4 30 -0
v -3 30 -0
v 3 30 -0
v 5 30 -0
v 9 30 -0
v -7 30 -2
v -4 30 -2
v -3 30 -2
v 3 30 -2
v 5 30 -2
v 9 30 -2
v -3 5 3
v 3 5 3
v -4 5 1
v -3 5 1
v 3 5 1
v 5 5 1
v -7 5 -0
v -6 5 -0
v -4 5 -0
v -3 5 -0
v 3 5 -0
v 5 5 -0
v 9 5 -0
v -7 5 -2
v -4 5 -2
v -3 5 -2
v 3 5 -2
v 5 5 -2
v 9 5 -2
v -3 11 1
v 3 11 1
v -7 11 -0
v -6 11 -0
v -4 11 -0
v -3 11 -0
v 3 11 -0
v 5 11 -0
v 9 11 -0
v -7 11 -2
v -4 11 -2
v -3 11 -2
v 3 11 -2
v 5 11 -2
v 9 11 -2
v -3 18 3
v 3 18 3
v -4 18 1
v -3 18 1
v 3 18 1
v 5 18 1
v -7 18 -0
v -6 18 -0
v -4 18 -0
v -3 18 -0
v 3 18 -0
v 5 18 -0
v 8 18 -0
v 9 18 -0
v -7 18 -2
v -6 18 -2
v -3 18 -2
v 3 18 -2
v 8 18 -2
v 9 18 -2
v 5 20 1
v 8 20 1
v 5 20 -0
v 8 20 -0
v -6 21 -0
v -4 21 -0
v 5 21 -0
v 8 21 -0
v -6 21 -2
v -4 21 -2
v 5 21 -2
v 8 21 -2
v -3 26 1
v 3 26 1
v -7 26 -0
v -6 26 -0
v -4 26 -0
v -3 26 -0
v 3 26 -0
v 5 26 -0
v 9 26 -0
v -7 26 -2
v -4 26 -2
v -3 26 -2
v 3 26 -2
v 5 26 -2
v 9 26 -2
v -4 32 3
v -3 32 3
v 3 32 3
v 5 32 3
v -3 32 1
v 3 32 1
v -7 32 -0
v -6 32 -0
v -4 32 -0
v -3 32 -0
v 3 32 -0
v 5 32 -0
v 9 32 -0
v -7 32 -2
v -4 32 -2
v -3 32 -2
v 3 32 -2
v 5 32 -2
v 9 32 -2
v -9 35 3
v -7 35 3
v -9 35 1
v -7 35 1
v -6 35 1
v -7 35 -0
v -6 35 -0
v -4 35 -0
v -3 35 -0
v 3 35 -0
v 5 35 -0
v -9 35 -2
v -7 35 -2
v -4 35 -2
v -3 35 -2
v 3 35 -2
v 5 35 -2
v 9 35 -2
v -9 35 -3
v 9 35 -3

# faces
f 5/2/1 2/2/1 1/2/1
f 5/7/1 3/7/1 2/7/1
f 6/4/1 4/4/1 3/4/1
f 6/7/1 3/7/1 5/7/1
f 7/1/1 6/1/1 5/1/1
f 8/4/1 4/4/1 6/4/1
f 8/1/1 6/1/1 7/1/1
f 9/1/1 7/1/1 5/1/1
f 9/6/1 8/6/1 7/6/1
f 10/4/1 4/4/1 8/4/1
f 10/6/1 8/6/1 9/6/1
f 11/2/1 5/2/1 1/2/1
f 11/1/1 9/1/1 5/1/1
f 11/1/1 10/1/1 9/1/1
f 12/4/1 4/4/1 10/4/1
f 12/1/1 10/1/1 11/1/1
f 13/7/1 12/7/1 11/7/1
f 14/4/1 4/4/1 12/4/1
f 14/7/1 12/7/1 13/7/1
f 15/7/1 13/7/1 11/7/1
f 15/6/1 14/6/1 13/6/1
f 16/4/1 4/4/1 14/4/1
f 16/6/1 14/6/1 15/6/1
f 17/2/1 11/2/1 1/2/1
f 17/7/1 15/7/1 11/7/1
f 17/7/1 16/7/1 15/7/1
f 18/4/1 4/4/1 16/4/1
f 18/7/1 16/7/1 17/7/1
f 19/1/1 18/1/1 17/1/1
f 20/4/1 4/4/1 18/4/1
f 20/1/1 18/1/1 19/1/1
f 21/1/1 19/1/1 17/1/1
f 21/6/1 20/6/1 19/6/1
f 22/4/1 4/4/1 20/4/1
f 22/6/1 20/6/1 21/6/1
f 23/2/1 17/2/1 1/2/1
f 23/1/1 21/1/1 17/1/1
f 23/1/1 22/1/1 21/1/1
f 24/4/1 4/4/1 22/4/1
f 24/1/1 22/1/1 23/1/1
f 25/7/1 24/7/1 23/7/1
f 26/4/1 4/4/1 24/4/1
f 26/7/1 24/7/1 25/7/1
f 27/7/1 25/7/1 23/7/1
f 27/6/1 26/6/1 25/6/1
f 28/4/1 4/4/1 26/4/1
f 28/6/1 26/6/1 27/6/1
f 29/2/1 23/2/1 1/2/1
f 29/7/1 27/7/1 23/7/1
f 29/7/1 28/7/1 27/7/1
f 30/4/1 4/4/1 28/4/1
f 30/7/1 28/7/1 29/7/1
f 31/1/1 30/1/1 29/1/1
f 32/4/1 4/4/1 30/4/1
f 32/1/1 30/1/1 31/1/1
f 33/1/1 31/1/1 29/1/1
f 33/6/1 32/6/1 31/6/1
f 34/4/1 4/4/1 32/4/1
f 34/6/1 32/6/1 33/6/1
f 35/2/1 29/2/1 1/2/1
f 35/1/1 33/1/1 29/1/1
f 35/1/1 34/1/1 33/1/1
f 36/4/1 4/4/1 34/4/1
f 36/1/1 34/1/1 35/1/1
f 37/2/1 35/2/1 1/2/1
f 38/7/1 36/7/1 35/7/1
f 38/2/1 35/2/1 37/2/1
f 39/4/1 4/4/1 36/4/1
f 39/7/1 36/7/1 38/7/1
f 40/4/1 4/4/1 39/4/1
f 43/2/1 42/2/1 41/2/1
f 44/2/1 42/2/1 43/2/1
f 47/2/1 46/2/1 45/2/1
f 48/2/1 46/2/1 47/2/1
f 52/6/1 50/6/1 49/6/1
f 53/6/1 50/6/1 52/6/1
f 54/6/1 52/6/1 51/6/1
f 55/6/1 52/6/1 54/6/1
f 57/6/1 56/6/1 55/6/1
f 58/6/1 56/6/1 57/6/1
f 61/6/1 60/6/1 59/6/1
f 62/6/1 60/6/1 61/6/1
f 63/6/1 54/6/1 51/6/1
f 65/6/1 63/6/1 51/6/1
f 65/6/1 64/6/1 63/6/1
f 66/6/1 64/6/1 65/6/1
f 69/6/1 68/6/1 67/6/1
f 70/6/1 68/6/1 69/6/1
f 73/6/1 65/6/1 51/6/1
f 74/6/1 72/6/1 71/6/1
f 75/6/1 72/6/1 74/6/1
f 76/6/1 73/6/1 51/6/1
f 76/6/1 74/6/1 73/6/1
f 77/6/1 74/6/1 76/6/1
f 79/6/1 78/6/1 77/6/1
f 80/6/1 78/6/1 79/6/1
f 83/8/1 82/8/1 81/8/1
f 84/8/1 82/8/1 83/8/1
f 87/8/1 86/8/1 85/8/1
f 88/8/1 86/8/1 87/8/1
f 91/6/1 90/6/1 89/6/1
f 92/6/1 90/6/1 91/6/1
f 97/6/1 94/6/1 93/6/1
f 98/6/1 96/6/1 95/6/1
f 99/6/1 96/6/1 98/6/1
f 100/6/1 97/6/1 93/6/1
f 103/6/1 100/6/1 93/6/1
f 104/6/1 100/6/1 103/6/1
f 105/6/1 102/6/1 101/6/1
f 106/6/1 102/6/1 105/6/1
f 111/6/1 108/6/1 107/6/1
f 112/6/1 110/6/1 109/6/1
f 113/6/1 110/6/1 112/6/1
f 114/6/1 111/6/1 107/6/1
f 117/6/1 114/6/1 107/6/1
f 118/6/1 114/6/1 117/6/1
f 119/6/1 116/6/1 115/6/1
f 120/6/1 116/6/1 119/6/1
f 123/6/1 122/6/1 121/6/1
f 124/6/1 122/6/1 123/6/1
f 127/3/1 126/3/1 125/3/1
f 128/3/1 126/3/1 127/3/1
f 131/3/1 130/3/1 129/3/1
f 132/3/1 130/3/1 131/3/1
f 135/7/2 136/7/2 137/7/2
f 137/7/2 136/7/2 138/7/2
f 137/1/2 138/1/2 139/1/2
f 139/1/2 138/1/2 140/1/2
f 141/1/2 142/1/2 143/1/2
f 143/1/2 142/1/2 144/1/2
f 143/7/2 144/7/2 145/7/2
f 145/7/2 144/7/2 146/7/2
f 147/7/2 148/7/2 149/7/2
f 149/7/2 148/7/2 150/7/2
f 149/1/2 150/1/2 151/1/2
f 151/1/2 150/1/2 152/1/2
f 153/1/2 154/1/2 155/1/2
f 155/1/2 154/1/2 156/1/2
f 155/7/2 156/7/2 157/7/2
f 157/7/2 156/7/2 158/7/2
f 159/7/2 160/7/2 161/7/2
f 161/7/2 160/7/2 162/7/2
f 161/1/2 162/1/2 163/1/2
f 163/1/2 162/1/2 164/1/2
f 165/1/2 166/1/2 167/1/2
f 167/1/2 166/1/2 168/1/2
f 133/2/2 134/2/2 169/2/2
f 169/2/2 134/2/2 170/2/2
f 167/7/2 168/7/2 171/7/2
f 171/7/2 168/7/2 172/7/2
f 173/5/2 174/5/2 175/5/2
f 173/5/2 175/5/2 176/5/2
f 173/5/2 176/5/2 177/5/2
f 173/5/2 177/5/2 178/5/2
f 173/5/2 178/5/2 179/5/2
f 173/5/2 179/5/2 180/5/2
f 173/5/2 180/5/2 181/5/2
f 173/5/2 181/5/2 182/5/2
f 173/5/2 182/5/2 183/5/2
f 173/5/2 183/5/2 184/5/2
f 173/5/2 184/5/2 185/5/2
f 173/5/2 185/5/2 186/5/2
f 173/5/2 186/5/2 187/5/2
f 187/5/2 186/5/2 188/5/2
f 189/6/2 190/6/2 191/6/2
f 191/6/2 190/6/2 192/6/2
f 193/6/2 194/6/2 197/6/2
f 195/6/2 196/6/2 198/6/2
f 198/6/2 196/6/2 199/6/2
f 193/6/2 197/6/2 200/6/2
f 193/6/2 200/6/2 203/6/2
f 203/6/2 200/6/2 204/6/2
f 201/6/2 202/6/2 205/6/2
f 205/6/2 202/6/2 206/6/2
f 207/6/2 208/6/2 211/6/2
f 209/6/2 210/6/2 212/6/2
f 212/6/2 210/6/2 213/6/2
f 207/6/2 211/6/2 214/6/2
f 207/6/2 214/6/2 217/6/2
f 217/6/2 214/6/2 218/6/2
f 215/6/2 216/6/2 219/6/2
f 219/6/2 216/6/2 220/6/2
f 221/6/2 222/6/2 223/6/2
f 223/6/2 222/6/2 224/6/2
f 225/8/2 226/8/2 227/8/2
f 227/8/2 226/8/2 228/8/2
f 229/8/2 230/8/2 231/8/2
f 231/8/2 230/8/2 232/8/2
f 233/6/2 234/6/2 236/6/2
f 236/6/2 234/6/2 237/6/2
f 235/6/2 236/6/2 238/6/2
f 238/6/2 236/6/2 239/6/2
f 239/6/2 240/6/2 241/6/2
f 241/6/2 240/6/2 242/6/2
f 243/6/2 244/6/2 245/6/2
f 245/6/2 244/6/2 246/6/2
f 235/6/2 238/6/2 247/6/2
f 235/6/2 247/6/2 248/6/2
f 249/6/2 250/6/2 251/6/2
f 251/6/2 250/6/2 252/6/2
f 235/6/2 248/6/2 255/6/2
f 253/6/2 254/6/2 256/6/2
f 256/6/2 254/6/2 257/6/2
f 235/6/2 255/6/2 258/6/2
f 255/6/2 256/6/2 258/6/2
f 258/6/2 256/6/2 259/6/2
f 259/6/2 260/6/2 261/6/2
f 261/6/2 260/6/2 262/6/2
f 263/2/2 264/2/2 266/2/2
f 266/2/2 264/2/2 267/2/2
f 265/3/2 266/3/2 267/3/2
f 267/2/2 264/2/2 268/2/2
f 265/3/2 267/3/2 269/3/2
f 265/3/2 269/3/2 271/3/2
f 269/2/2 270/2/2 272/2/2
f 271/3/2 269/3/2 272/3/2
f 272/2/2 270/2/2 273/2/2
f 273/2/2 270/2/2 274/2/2
f 275/4/2 276/4/2 278/4/2
f 277/6/2 278/6/2 279/6/2
f 278/4/2 276/4/2 280/4/2
f 279/6/2 278/6/2 280/6/2
f 280/4/2 276/4/2 282/4/2
f 281/6/2 282/6/2 283/6/2
f 282/4/2 276/4/2 284/4/2
f 283/6/2 282/6/2 284/6/2
f 284/4/2 276/4/2 286/4/2
f 285/6/2 286/6/2 287/6/2
f 286/4/2 276/4/2 288/4/2
f 287/6/2 286/6/2 288/6/2
f 288/4/2 276/4/2 290/4/2
f 289/6/2 290/6/2 291/6/2
f 290/4/2 276/4/2 292/4/2
f 291/6/2 290/6/2 292/6/2
f 292/4/2 276/4/2 294/4/2
f 293/6/2 294/6/2 295/6/2
f 294/4/2 276/4/2 296/4/2
f 295/6/2 294/6/2 296/6/2
f 296/4/2 276/4/2 297/4/2
f 297/4/2 276/4/2 298/4/2
f 301/2/3 300/2/3 299/2/3
f 302/2/3 300/2/3 301/2/3
f 305/6/3 304/6/3 303/6/3
f 306/6/3 304/6/3 305/6/3
f 307/6/3 304/6/3 306/6/3
f 308/6/3 304/6/3 307/6/3
f 309/6/3 304/6/3 308/6/3
f 310/6/3 304/6/3 309/6/3
f 311/8/3 306/8/3 305/8/3
f 312/8/3 306/8/3 311/8/3
f 313/8/3 308/8/3 307/8/3
f 314/8/3 308/8/3 313/8/3
f 315/8/3 310/8/3 309/8/3
f 316/8/3 310/8/3 315/8/3
f 317/6/3 314/6/3 313/6/3
f 317/6/3 312/6/3 311/6/3
f 317/6/3 316/6/3 315/6/3
f 317/6/3 315/6/3 314/6/3
f 317/6/3 313/6/3 312/6/3
f 318/6/3 316/6/3 317/6/3
f 321/5/3 320/5/3 319/5/3
f 322/5/3 320/5/3 321/5/3
f 327/8/3 324/8/3 323/8/3
f 328/8/3 324/8/3 327/8/3
f 329/8/3 326/8/3 325/8/3
f 330/8/3 326/8/3 329/8/3
f 333/3/3 332/3/3 331/3/3
f 334/3/3 332/3/3 333/3/3
f 348/6/3 336/6/3 335/6/3
f 349/6/3 336/6/3 348/6/3
f 350/6/3 338/6/3 337/6/3
f 351/6/3 338/6/3 350/6/3
f 352/2/3 340/2/3 339/2/3
f 353/6/3 341/6/3 340/6/3
f 353/2/3 340/2/3 352/2/3
f 354/2/3 342/2/3 341/2/3
f 354/6/3 341/6/3 353/6/3
f 355/2/3 342/2/3 354/2/3
f 356/6/3 344/6/3 343/6/3
f 357/6/3 344/6/3 356/6/3
f 358/6/3 346/6/3 345/6/3
f 359/6/3 346/6/3 358/6/3
f 361/6/3 348/6/3 347/6/3
f 362/6/3 348/6/3 361/6/3
f 363/6/3 351/6/3 350/6/3
f 363/6/3 352/6/3 351/6/3
f 363/6/3 353/6/3 352/6/3
f 363/6/3 350/6/3 349/6/3
f 364/6/3 353/6/3 363/6/3
f 365/6/3 353/6/3 364/6/3
f 366/6/3 353/6/3 365/6/3
f 367/6/3 357/6/3 356/6/3
f 367/6/3 356/6/3 355/6/3
f 367/6/3 355/6/3 354/6/3
f 367/6/3 358/6/3 357/6/3
f 368/6/3 358/6/3 367/6/3
f 369/6/3 358/6/3 368/6/3
f 370/6/3 358/6/3 369/6/3
f 371/6/3 360/6/3 359/6/3
f 372/6/3 360/6/3 371/6/3
f 385/6/3 374/6/3 373/6/3
f 386/6/3 374/6/3 385/6/3
f 387/6/3 376/6/3 375/6/3
f 387/6/3 377/6/3 376/6/3
f 387/6/3 378/6/3 377/6/3
f 388/6/3 378/6/3 387/6/3
f 389/6/3 378/6/3 388/6/3
f 390/6/3 378/6/3 389/6/3
f 391/6/3 378/6/3 390/6/3
f 392/6/3 378/6/3 391/6/3
f 393/6/3 382/6/3 381/6/3
f 393/6/3 380/6/3 379/6/3
f 393/6/3 381/6/3 380/6/3
f 394/6/3 382/6/3 393/6/3
f 395/6/3 382/6/3 394/6/3
f 396/6/3 382/6/3 395/6/3
f 397/6/3 382/6/3 396/6/3
f 398/6/3 382/6/3 397/6/3
f 399/6/3 384/6/3 383/6/3
f 400/6/3 384/6/3 399/6/3
f 401/2/3 391/2/3 390/2/3
f 402/2/3 391/2/3 401/2/3
f 405/2/3 395/2/3 394/2/3
f 406/2/3 395/2/3 405/2/3
f 407/6/3 387/6/3 386/6/3
f 408/6/3 387/6/3 407/6/3
f 409/6/3 389/6/3 388/6/3
f 410/6/3 389/6/3 409/6/3
f 411/6/3 404/6/3 403/6/3
f 412/6/3 404/6/3 411/6/3
f 413/6/3 397/6/3 396/6/3
f 414/6/3 397/6/3 413/6/3
f 415/6/3 399/6/3 398/6/3
f 416/6/3 399/6/3 415/6/3
f 435/4/3 424/4/3 423/4/3
f 435/4/3 425/4/3 424/4/3
f 436/4/3 425/4/3 435/4/3
f 437/4/3 427/4/3 426/4/3
f 437/4/3 428/4/3 427/4/3
f 438/4/3 428/4/3 437/4/3
f 439/4/3 418/4/3 417/4/3
f 439/4/3 419/4/3 418/4/3
f 440/4/3 419/4/3 439/4/3
f 441/4/3 421/4/3 420/4/3
f 441/4/3 422/4/3 421/4/3
f 442/4/3 422/4/3 441/4/3
f 443/4/3 435/4/3 423/4/3
f 444/4/3 435/4/3 443/4/3
f 445/4/3 428/4/3 438/4/3
f 446/4/3 428/4/3 445/4/3
f 447/4/3 431/4/3 430/4/3
f 447/4/3 430/4/3 429/4/3
f 448/4/3 431/4/3 447/4/3
f 449/4/3 434/4/3 433/4/3
f 449/4/3 433/4/3 432/4/3
f 450/4/3 434/4/3 449/4/3
f 463/4/3 452/4/3 451/4/3
f 464/4/3 452/4/3 463/4/3
f 465/4/3 454/4/3 453/4/3
f 466/4/3 454/4/3 465/4/3
f 467/4/3 456/4/3 455/4/3
f 468/4/3 456/4/3 467/4/3
f 469/4/3 458/4/3 457/4/3
f 470/4/3 458/4/3 469/4/3
f 471/4/3 460/4/3 459/4/3
f 472/4/3 460/4/3 471/4/3
f 473/4/3 462/4/3 461/4/3
f 474/4/3 462/4/3 473/4/3
f 487/4/3 480/4/3 479/4/3
f 490/4/3 482/4/3 481/4/3
f 491/4/3 476/4/3 475/4/3
f 492/4/3 476/4/3 491/4/3
f 493/4/3 478/4/3 477/4/3
f 494/4/3 478/4/3 493/4/3
f 495/4/3 488/4/3 487/4/3
f 495/4/3 487/4/3 479/4/3
f 496/4/3 488/4/3 495/4/3
f 497/4/3 490/4/3 489/4/3
f 498/4/3 482/4/3 490/4/3
f 498/4/3 490/4/3 497/4/3
f 499/4/3 484/4/3 483/4/3
f 500/4/3 484/4/3 499/4/3
f 501/4/3 486/4/3 485/4/3
f 502/4/3 486/4/3 501/4/3
f 503/6/4 504/6/4 507/6/4
f 507/6/4 504/6/4 508/6/4
f 508/6/4 504/6/4 509/6/4
f 509/6/4 504/6/4 510/6/4
f 505/6/4 506/6/4 511/6/4
f 511/6/4 506/6/4 512/6/4
f 512/6/4 506/6/4 513/6/4
f 513/6/4 506/6/4 514/6/4
f 515/6/4 516/6/4 523/6/4
f 516/6/4 517/6/4 523/6/4
f 517/6/4 518/6/4 523/6/4
f 523/6/4 518/6/4 524/6/4
f 524/6/4 518/6/4 525/6/4
f 521/6/4 522/6/4 526/6/4
f 520/6/4 521/6/4 526/6/4
f 519/6/4 520/6/4 526/6/4
f 526/6/4 522/6/4 527/6/4
f 527/6/4 522/6/4 528/6/4
f 529/5/4 530/5/4 547/5/4
f 530/5/4 531/5/4 547/5/4
f 547/5/4 531/5/4 548/5/4
f 532/5/4 533/5/4 549/5/4
f 533/5/4 534/5/4 549/5/4
f 549/5/4 534/5/4 550/5/4
f 535/5/4 536/5/4 551/5/4
f 536/5/4 537/5/4 551/5/4
f 551/5/4 537/5/4 552/5/4
f 552/5/4 537/5/4 553/5/4
f 538/5/4 539/5/4 554/5/4
f 539/5/4 540/5/4 554/5/4
f 554/5/4 540/5/4 555/5/4
f 555/5/4 540/5/4 556/5/4
f 541/5/4 542/5/4 557/5/4
f 542/5/4 543/5/4 557/5/4
f 557/5/4 543/5/4 558/5/4
f 545/5/4 546/5/4 559/5/4
f 544/5/4 545/5/4 559/5/4
f 559/5/4 546/5/4 560/5/4
f 561/4/4 562/4/4 563/4/4
f 563/4/4 562/4/4 564/4/4
f 567/2/5 566/2/5 565/2/5
f 568/2/5 566/2/5 567/2/5
f 570/7/5 568/7/5 567/7/5
f 570/5/5 569/5/5 568/5/5
f 571/5/5 569/5/5 570/5/5
f 576/7/5 570/7/5 567/7/5
f 577/7/5 570/7/5 576/7/5
f 578/6/5 573/6/5 572/6/5
f 579/6/5 573/6/5 578/6/5
f 580/6/5 575/6/5 574/6/5
f 581/6/5 575/6/5 580/6/5
f 583/4/5 579/4/5 578/4/5
f 583/4/5 582/4/5 581/4/5
f 583/4/5 581/4/5 580/4/5
f 583/4/5 580/4/5 579/4/5
f 583/4/5 577/4/5 576/4/5
f 583/4/5 578/4/5 577/4/5
f 584/4/5 582/4/5 583/4/5
f 589/6/5 586/6/5 585/6/5
f 589/8/5 587/8/5 586/8/5
f 590/6/5 588/6/5 587/6/5
f 590/8/5 587/8/5 589/8/5
f 593/6/5 589/6/5 585/6/5
f 593/6/5 590/6/5 589/6/5
f 594/6/5 590/6/5 593/6/5
f 595/6/5 588/6/5 590/6/5
f 595/6/5 590/6/5 594/6/5
f 596/6/5 588/6/5 595/6/5
f 598/6/5 592/6/5 591/6/5
f 598/6/5 593/6/5 592/6/5
f 599/6/5 593/6/5 598/6/5
f 600/6/5 595/6/5 594/6/5
f 601/6/5 595/6/5 600/6/5
f 602/6/5 597/6/5 596/6/5
f 603/6/5 597/6/5 602/6/5
f 609/8/5 605/8/5 604/8/5
f 610/8/5 605/8/5 609/8/5
f 613/6/5 608/6/5 607/6/5
f 613/6/5 607/6/5 606/6/5
f 614/6/5 608/6/5 613/6/5
f 615/6/5 610/6/5 609/6/5
f 616/6/5 610/6/5 615/6/5
f 617/6/5 612/6/5 611/6/5
f 618/6/5 612/6/5 617/6/5
f 623/2/5 620/2/5 619/2/5
f 624/2/5 620/2/5 623/2/5
f 625/2/5 622/2/5 621/2/5
f 626/2/5 622/2/5 625/2/5
f 629/3/5 628/3/5 627/3/5
f 630/3/5 628/3/5 629/3/5
f 634/8/5 632/8/5 631/8/5
f 635/8/5 632/8/5 634/8/5
f 639/6/5 634/6/5 633/6/5
f 639/6/5 635/6/5 634/6/5
f 639/6/5 636/6/5 635/6/5
f 640/6/5 636/6/5 639/6/5
f 641/6/5 636/6/5 640/6/5
f 642/6/5 636/6/5 641/6/5
f 645/6/5 638/6/5 637/6/5
f 646/6/5 638/6/5 645/6/5
f 647/6/5 641/6/5 640/6/5
f 648/6/5 641/6/5 647/6/5
f 649/6/5 644/6/5 643/6/5
f 650/6/5 644/6/5 649/6/5
f 656/8/5 652/8/5 651/8/5
f 657/8/5 652/8/5 656/8/5
f 660/6/5 655/6/5 654/6/5
f 660/6/5 654/6/5 653/6/5
f 661/6/5 655/6/5 660/6/5
f 662/6/5 657/6/5 656/6/5
f 663/6/5 657/6/5 662/6/5
f 664/6/5 659/6/5 658/6/5
f 665/6/5 659/6/5 664/6/5
f 669/8/5 667/8/5 666/8/5
f 670/8/5 667/8/5 669/8/5
f 674/6/5 669/6/5 668/6/5
f 674/6/5 670/6/5 669/6/5
f 674/6/5 671/6/5 670/6/5
f 675/6/5 671/6/5 674/6/5
f 676/6/5 671/6/5 675/6/5
f 677/6/5 671/6/5 676/6/5
f 679/6/5 673/6/5 672/6/5
f 679/6/5 674/6/5 673/6/5
f 680/6/5 674/6/5 679/6/5
f 681/6/5 676/6/5 675/6/5
f 682/6/5 676/6/5 681/6/5
f 683/6/5 678/6/5 677/6/5
f 684/6/5 678/6/5 683/6/5
f 685/8/6 686/8/6 688/8/6
f 688/8/6 686/8/6 689/8/6
f 687/6/6 688/6/6 693/6/6
f 688/6/6 689/6/6 693/6/6
f 689/6/6 690/6/6 693/6/6
f 693/6/6 690/6/6 694/6/6
f 694/6/6 690/6/6 695/6/6
f 695/6/6 690/6/6 696/6/6
f 691/6/6 692/6/6 698/6/6
f 692/6/6 693/6/6 698/6/6
f 698/6/6 693/6/6 699/6/6
f 694/6/6 695/6/6 700/6/6
f 700/6/6 695/6/6 701/6/6
f 696/6/6 697/6/6 702/6/6
f 702/6/6 697/6/6 703/6/6
f 704/8/6 705/8/6 709/8/6
f 709/8/6 705/8/6 710/8/6
f 707/6/6 708/6/6 713/6/6
f 706/6/6 707/6/6 713/6/6
f 713/6/6 708/6/6 714/6/6
f 709/6/6 710/6/6 715/6/6
f 715/6/6 710/6/6 716/6/6
f 711/6/6 712/6/6 717/6/6
f 717/6/6 712/6/6 718/6/6
f 719/8/6 720/8/6 722/8/6
f 722/8/6 720/8/6 723/8/6
f 721/6/6 722/6/6 727/6/6
f 722/6/6 723/6/6 727/6/6
f 723/6/6 724/6/6 727/6/6
f 727/6/6 724/6/6 728/6/6
f 728/6/6 724/6/6 729/6/6
f 729/6/6 724/6/6 730/6/6
f 725/6/6 726/6/6 733/6/6
f 733/6/6 726/6/6 734/6/6
f 728/6/6 729/6/6 735/6/6
f 735/6/6 729/6/6 736/6/6
f 731/6/6 732/6/6 737/6/6
f 737/6/6 732/6/6 738/6/6
f 739/3/6 740/3/6 741/3/6
f 741/3/6 740/3/6 742/3/6
f 743/2/6 744/2/6 747/2/6
f 747/2/6 744/2/6 748/2/6
f 745/2/6 746/2/6 749/2/6
f 749/2/6 746/2/6 750/2/6
f 751/8/6 752/8/6 756/8/6
f 756/8/6 752/8/6 757/8/6
f 754/6/6 755/6/6 760/6/6
f 753/6/6 754/6/6 760/6/6
f 760/6/6 755/6/6 761/6/6
f 756/6/6 757/6/6 762/6/6
f 762/6/6 757/6/6 763/6/6
f 758/6/6 759/6/6 764/6/6
f 764/6/6 759/6/6 765/6/6
f 766/6/6 767/6/6 770/6/6
f 767/8/6 768/8/6 770/8/6
f 768/6/6 769/6/6 771/6/6
f 770/8/6 768/8/6 771/8/6
f 766/6/6 770/6/6 774/6/6
f 770/6/6 771/6/6 774/6/6
f 774/6/6 771/6/6 775/6/6
f 771/6/6 769/6/6 776/6/6
f 775/6/6 771/6/6 776/6/6
f 776/6/6 769/6/6 777/6/6
f 772/6/6 773/6/6 779/6/6
f 773/6/6 774/6/6 779/6/6
f 779/6/6 774/6/6 780/6/6
f 775/6/6 776/6/6 781/6/6
f 781/6/6 776/6/6 782/6/6
f 777/6/6 778/6/6 783/6/6
f 783/6/6 778/6/6 784/6/6
f 785/2/6 786/2/6 787/2/6
f 787/2/6 786/2/6 788/2/6
f 787/7/6 788/7/6 790/7/6
f 788/5/6 789/5/6 790/5/6
f 790/5/6 789/5/6 791/5/6
f 787/7/6 790/7/6 796/7/6
f 796/7/6 790/7/6 797/7/6
f 792/6/6 793/6/6 798/6/6
f 798/6/6 793/6/6 799/6/6
f 794/6/6 795/6/6 800/6/6
f 800/6/6 795/6/6 801/6/6
f 798/4/6 799/4/6 803/4/6
f 801/4/6 802/4/6 803/4/6
f 800/4/6 801/4/6 803/4/6
f 799/4/6 800/4/6 803/4/6
f 796/4/6 797/4/6 803/4/6
f 797/4/6 798/4/6 803/4/6
f 803/4/6 802/4/6 804/4/6
