# 3ds Max Wavefront OBJ Exporter v0.97b - (c)2007 guruware
# File Created: 04.01.2018 10:23:58

mtllib TankGun.mtl

#
# object TankGun
#

v  0.0000 -2.0000 2.0000
v  0.0000 -4.0000 -4.0000
v  0.0000 -4.0000 4.0000
v  0.0000 -2.0000 -2.0000
v  0.0000 2.0000 2.0000
v  0.0000 2.0000 -2.0000
v  0.0000 4.0000 4.0000
v  0.0000 4.0000 -4.0000
v  36.0000 -2.0000 2.0000
v  36.0000 -3.0000 -2.0000
v  36.0000 -3.0000 2.0000
v  36.0000 -2.0000 -2.0000
v  36.0000 2.0000 3.0000
v  36.0000 -2.0000 3.0000
v  36.0000 2.0000 2.0000
v  36.0000 2.0000 -2.0000
v  36.0000 -2.0000 -3.0000
v  36.0000 2.0000 -3.0000
v  36.0000 3.0000 2.0000
v  36.0000 3.0000 -2.0000
v  39.0000 1.0000 3.0000
v  39.0000 -1.0000 2.0000
v  39.0000 -1.0000 3.0000
v  39.0000 1.0000 2.0000
v  39.0000 1.0000 -2.0000
v  39.0000 -1.0000 -3.0000
v  39.0000 -1.0000 -2.0000
v  39.0000 1.0000 -3.0000
v  3.0000 -4.0000 4.0000
v  3.0000 -4.0000 -4.0000
v  3.0000 -2.0000 2.0000
v  3.0000 -2.0000 -2.0000
v  3.0000 2.0000 2.0000
v  3.0000 2.0000 -2.0000
v  3.0000 4.0000 4.0000
v  3.0000 4.0000 -4.0000
v  36.0000 -1.0000 1.0000
v  36.0000 -1.0000 -1.0000
v  36.0000 1.0000 1.0000
v  36.0000 1.0000 -1.0000
v  37.0000 -2.0000 2.0000
v  37.0000 -2.0000 -2.0000
v  37.0000 -1.0000 2.0000
v  37.0000 -1.0000 1.0000
v  37.0000 -1.0000 -1.0000
v  37.0000 -1.0000 -2.0000
v  37.0000 -1.0000 3.0000
v  37.0000 1.0000 3.0000
v  37.0000 1.0000 2.0000
v  37.0000 1.0000 1.0000
v  37.0000 1.0000 -1.0000
v  37.0000 -1.0000 -3.0000
v  37.0000 1.0000 -2.0000
v  37.0000 1.0000 -3.0000
v  37.0000 2.0000 2.0000
v  37.0000 2.0000 -2.0000
v  40.0000 -3.0000 2.0000
v  40.0000 -3.0000 -2.0000
v  40.0000 -2.0000 2.0000
v  40.0000 -2.0000 -2.0000
v  40.0000 -2.0000 3.0000
v  40.0000 2.0000 3.0000
v  40.0000 2.0000 2.0000
v  40.0000 -2.0000 -3.0000
v  40.0000 2.0000 -2.0000
v  40.0000 2.0000 -3.0000
v  40.0000 3.0000 2.0000
v  40.0000 3.0000 -2.0000
v  1.0000 -4.0000 4.0000
v  1.0000 4.0000 4.0000
v  2.0000 -4.0000 4.0000
v  2.0000 4.0000 4.0000
v  1.0000 -4.0000 -4.0000
v  1.0000 4.0000 -4.0000
v  2.0000 -4.0000 -4.0000
v  2.0000 4.0000 -4.0000
# 76 vertices

vn -1.0000 0.0000 -0.0000
vn 1.0000 0.0000 -0.0000
vn 0.0000 0.0000 1.0000
vn 0.0000 0.0000 -1.0000
vn 0.0000 -1.0000 -0.0000
vn 0.0000 1.0000 -0.0000
# 6 vertex normals

vt 0.9902 0.5000 0.0000
vt 0.9863 0.5000 0.0000
vt 0.9941 0.5000 0.0000
# 3 texture coords

g TankGun
usemtl palette
s 1
f 1/1/1 2/1/1 3/1/1 
f 4/1/1 2/1/1 1/1/1 
f 5/1/1 1/1/1 3/1/1 
f 5/2/1 4/2/1 1/2/1 
f 6/1/1 2/1/1 4/1/1 
f 6/2/1 4/2/1 5/2/1 
f 7/1/1 5/1/1 3/1/1 
f 7/1/1 6/1/1 5/1/1 
f 8/1/1 2/1/1 6/1/1 
f 8/1/1 6/1/1 7/1/1 
f 9/1/1 10/1/1 11/1/1 
f 12/1/1 10/1/1 9/1/1 
f 13/1/1 9/1/1 14/1/1 
f 15/1/1 9/1/1 13/1/1 
f 16/1/1 17/1/1 12/1/1 
f 18/1/1 17/1/1 16/1/1 
f 19/1/1 16/1/1 15/1/1 
f 20/1/1 16/1/1 19/1/1 
f 21/1/1 22/1/1 23/1/1 
f 24/1/1 22/1/1 21/1/1 
f 25/1/1 26/1/1 27/1/1 
f 28/1/1 26/1/1 25/1/1 
f 29/1/2 30/1/2 31/1/2 
f 31/1/2 30/1/2 32/1/2 
f 29/1/2 31/1/2 33/1/2 
f 32/1/2 30/1/2 34/1/2 
f 29/1/2 33/1/2 35/1/2 
f 33/1/2 34/1/2 35/1/2 
f 34/1/2 30/1/2 36/1/2 
f 35/1/2 34/1/2 36/1/2 
f 37/3/2 38/3/2 39/3/2 
f 39/3/2 38/3/2 40/3/2 
f 41/3/2 42/3/2 43/3/2 
f 43/3/2 42/3/2 44/3/2 
f 44/3/2 42/3/2 45/3/2 
f 45/3/2 42/3/2 46/3/2 
f 47/1/2 43/1/2 48/1/2 
f 43/3/2 44/3/2 49/3/2 
f 48/1/2 43/1/2 49/1/2 
f 49/3/2 44/3/2 50/3/2 
f 45/3/2 46/3/2 51/3/2 
f 46/1/2 52/1/2 53/1/2 
f 51/3/2 46/3/2 53/3/2 
f 53/1/2 52/1/2 54/1/2 
f 50/3/2 51/3/2 55/3/2 
f 49/3/2 50/3/2 55/3/2 
f 51/3/2 53/3/2 55/3/2 
f 55/3/2 53/3/2 56/3/2 
f 57/1/2 58/1/2 59/1/2 
f 59/1/2 58/1/2 60/1/2 
f 61/1/2 59/1/2 62/1/2 
f 62/1/2 59/1/2 63/1/2 
f 60/1/2 64/1/2 65/1/2 
f 65/1/2 64/1/2 66/1/2 
f 63/1/2 65/1/2 67/1/2 
f 67/1/2 65/1/2 68/1/2 
f 69/1/3 7/1/3 3/1/3 
f 70/1/3 7/1/3 69/1/3 
f 71/3/3 70/3/3 69/3/3 
f 72/3/3 70/3/3 71/3/3 
f 29/1/3 72/1/3 71/1/3 
f 35/1/3 72/1/3 29/1/3 
f 47/1/3 13/1/3 14/1/3 
f 48/1/3 13/1/3 47/1/3 
f 23/1/3 47/1/3 14/1/3 
f 21/1/3 13/1/3 48/1/3 
f 61/1/3 23/1/3 14/1/3 
f 61/1/3 21/1/3 23/1/3 
f 62/1/3 13/1/3 21/1/3 
f 62/1/3 21/1/3 61/1/3 
f 9/2/3 33/2/3 31/2/3 
f 15/2/3 33/2/3 9/2/3 
f 57/1/3 9/1/3 11/1/3 
f 59/1/3 9/1/3 57/1/3 
f 63/1/3 19/1/3 15/1/3 
f 67/1/3 19/1/3 63/1/3 
f 45/3/3 40/3/3 38/3/3 
f 51/3/3 40/3/3 45/3/3 
f 27/1/3 46/1/3 42/1/3 
f 25/1/3 56/1/3 53/1/3 
f 60/1/3 27/1/3 42/1/3 
f 60/1/3 25/1/3 27/1/3 
f 65/1/3 56/1/3 25/1/3 
f 65/1/3 25/1/3 60/1/3 
f 41/1/4 43/1/4 22/1/4 
f 49/1/4 55/1/4 24/1/4 
f 41/1/4 22/1/4 59/1/4 
f 22/1/4 24/1/4 59/1/4 
f 24/1/4 55/1/4 63/1/4 
f 59/1/4 24/1/4 63/1/4 
f 37/3/4 39/3/4 44/3/4 
f 44/3/4 39/3/4 50/3/4 
f 32/2/4 34/2/4 12/2/4 
f 12/2/4 34/2/4 16/2/4 
f 10/1/4 12/1/4 58/1/4 
f 58/1/4 12/1/4 60/1/4 
f 16/1/4 20/1/4 65/1/4 
f 65/1/4 20/1/4 68/1/4 
f 17/1/4 18/1/4 52/1/4 
f 52/1/4 18/1/4 54/1/4 
f 17/1/4 52/1/4 26/1/4 
f 54/1/4 18/1/4 28/1/4 
f 17/1/4 26/1/4 64/1/4 
f 26/1/4 28/1/4 64/1/4 
f 28/1/4 18/1/4 66/1/4 
f 64/1/4 28/1/4 66/1/4 
f 2/1/4 8/1/4 73/1/4 
f 73/1/4 8/1/4 74/1/4 
f 73/3/4 74/3/4 75/3/4 
f 75/3/4 74/3/4 76/3/4 
f 75/1/4 76/1/4 30/1/4 
f 30/1/4 76/1/4 36/1/4 
f 2/1/5 69/1/5 3/1/5 
f 73/3/5 71/3/5 69/3/5 
f 73/1/5 69/1/5 2/1/5 
f 75/1/5 29/1/5 71/1/5 
f 75/3/5 71/3/5 73/3/5 
f 30/1/5 29/1/5 75/1/5 
f 10/1/5 57/1/5 11/1/5 
f 58/1/5 57/1/5 10/1/5 
f 9/1/5 61/1/5 14/1/5 
f 59/1/5 61/1/5 9/1/5 
f 32/2/5 9/2/5 31/2/5 
f 12/2/5 9/2/5 32/2/5 
f 17/1/5 60/1/5 12/1/5 
f 64/1/5 60/1/5 17/1/5 
f 49/1/5 21/1/5 48/1/5 
f 24/1/5 21/1/5 49/1/5 
f 40/3/5 50/3/5 39/3/5 
f 51/3/5 50/3/5 40/3/5 
f 54/1/5 25/1/5 53/1/5 
f 28/1/5 25/1/5 54/1/5 
f 56/1/5 63/1/5 55/1/5 
f 65/1/5 63/1/5 56/1/5 
f 41/1/6 59/1/6 42/1/6 
f 42/1/6 59/1/6 60/1/6 
f 47/1/6 23/1/6 43/1/6 
f 43/1/6 23/1/6 22/1/6 
f 37/3/6 44/3/6 38/3/6 
f 38/3/6 44/3/6 45/3/6 
f 46/1/6 27/1/6 52/1/6 
f 52/1/6 27/1/6 26/1/6 
f 13/1/6 62/1/6 15/1/6 
f 15/1/6 62/1/6 63/1/6 
f 33/2/6 15/2/6 34/2/6 
f 34/2/6 15/2/6 16/2/6 
f 16/1/6 65/1/6 18/1/6 
f 18/1/6 65/1/6 66/1/6 
f 19/1/6 67/1/6 20/1/6 
f 20/1/6 67/1/6 68/1/6 
f 7/1/6 70/1/6 8/1/6 
f 70/3/6 72/3/6 74/3/6 
f 8/1/6 70/1/6 74/1/6 
f 72/1/6 35/1/6 76/1/6 
f 74/3/6 72/3/6 76/3/6 
f 76/1/6 35/1/6 36/1/6 
# 0 polygons - 156 triangles

